<svg xmlns="http://www.w3.org/2000/svg" xmlns:xlink="http://www.w3.org/1999/xlink" id="Ebene_1" data-name="Ebene 1" viewBox="0 0 72.04 72.03"><defs><style>      .cls-1 {        fill: #eff5ff;      }      .cls-1, .cls-2, .cls-3, .cls-4 {        stroke-width: 0px;      }      .cls-2 {        fill: #ff0;      }      .cls-5 {        clip-path: url(#clippath-2);      }      .cls-3 {        fill: none;      }      .cls-6 {        clip-path: url(#clippath-1);      }      .cls-7 {        clip-path: url(#clippath);      }      .cls-4 {        fill: #454950;      }    </style><clipPath id="clippath"><path class="cls-3" d="M-359.74,137.71h86v61.36c0,23.54-19.11,42.64-42.64,42.64h-.93c-23.41,0-42.42-19.01-42.42-42.42v-61.58h0Z"></path></clipPath><clipPath id="clippath-1"><path class="cls-3" d="M-359.74,375.71h86v61.36c0,23.54-19.11,42.64-42.64,42.64h0c-23.93,0-43.36-19.43-43.36-43.36v-60.64h0Z"></path></clipPath><clipPath id="clippath-2"><path class="cls-3" d="M-359.74,495.71h86v61.36c0,23.54-19.11,42.64-42.64,42.64h0c-23.93,0-43.36-19.43-43.36-43.36v-60.64h0Z"></path></clipPath><image id="image" width="1280" height="720"></image></defs><path class="cls-1" d="M35.11,72.02c-5.23-.42-11.46.71-17.62-1.01C7.76,68.29.27,59.12.11,48.99-.03,40.38-.04,31.76.11,23.15.31,10.89,11.02.26,23.28.09,31.76-.03,40.24-.02,48.73.09c12.43.16,23.11,10.92,23.25,23.38.09,8.36.08,16.73,0,25.09-.12,12.63-10.91,23.33-23.56,23.46-4.12.04-8.23,0-13.31,0Z"></path><g><path class="cls-4" d="M56.19,59.27c-1.03,0-2.09-.46-2.98-1.35-4.11-4.11-8.23-8.22-12.34-12.33-.42-.42-.78-.9-1.22-1.31-.52-.49-.93-.92-.28-1.65.33-.37-.24-.54-.42-.79-.16-.22-.38-.34-.62-.07-.08.09-.18.17-.27.26-1.82,1.82-3.62,3.67-5.47,5.46-1.84,1.78-2.93,3.94-3.62,6.38-.83,2.94-3.57,5.09-6.47,5.2-3.3.13-6.07-1.67-7.22-4.7-1.49-3.89.83-8.43,4.84-9.48,2.45-.64,4.6-1.75,6.35-3.66,1.72-1.88,3.57-3.63,5.4-5.4.4-.4.44-.62.02-1.04-2.93-2.89-5.85-5.8-8.75-8.73-.4-.41-.68-.48-1.04,0-.09.12-.22.22-.33.34-.44.45-1.1.83-1.26,1.36-.18.62.68.91,1.04,1.38.31.41.27.73-.08,1.07-.78.77-1.56,1.55-2.33,2.33-.41.41-.79.41-1.21-.02-2.24-2.25-4.48-4.49-6.74-6.73-.47-.47-.4-.87.03-1.28.81-.79,1.64-1.55,2.44-2.35.49-.49.79-.09,1.1.2q1.17,1.06,2.27-.04c2.74-2.73,5.48-5.46,8.2-8.21.48-.49.93-.69,1.66-.55,1.72.33,3.47.52,5.21.77.34.05.72.03.82.47.09.4-.19.64-.44.88-1.62,1.62-3.23,3.26-4.88,4.85-.48.46-.58.72-.04,1.25,2.9,2.84,5.76,5.7,8.61,8.59.48.48.76.55,1.26.02,1.27-1.35,2.57-2.68,3.93-3.94,2.08-1.93,3.05-4.4,3.63-7.08,1.13-5.22,6.45-7.99,11.36-5.91.12.05.23.11.34.16.34.14.61.34.66.73.06.44-.3.59-.6.76-1.41.82-2.83,1.63-4.25,2.44-1.2.68-1.39,1.37-.71,2.54.46.79.9,1.58,1.35,2.37.64,1.1,1.31,1.29,2.42.66,1.42-.81,2.82-1.64,4.23-2.47.36-.21.76-.45,1.14-.16.31.24.24.66.21,1.05-.22,3.67-3,6.64-6.68,7.42-2.98.63-5.55,1.9-7.57,4.24-1.05,1.21-2.25,2.27-3.38,3.41-.24.25-.68.48-.18.89.31.25.49.75,1.05.23.57-.53,1.01-.04,1.43.38,3.6,3.6,7.2,7.2,10.8,10.8,1,1,2.02,1.98,3,3,1.24,1.29,1.56,3.25.85,4.81-.74,1.63-2.3,2.63-4.27,2.57ZM29.11,50.04c.76-1.28,1.6-2.29,2.53-3.22,4.89-4.88,9.78-9.76,14.67-14.65,1.34-1.34,2.73-2.59,4.6-3.39-1.39-.48-2.58-1.1-3.56-2.06-.99-.97-1.65-2.17-2.19-3.6-.62,1.59-1.54,2.77-2.62,3.84-4.23,4.21-8.44,8.44-12.68,12.65-1.86,1.85-3.61,3.84-5.97,5.2,2.6.89,4.35,2.52,5.21,5.23ZM56.25,58.11c1.67,0,2.68-.69,3.18-1.96.5-1.27.23-2.5-.73-3.48-4.41-4.44-8.84-8.84-13.26-13.27-.4-.4-.7-.41-1.1,0-1.12,1.15-2.25,2.28-3.4,3.39-.44.42-.44.71,0,1.15,4.44,4.41,8.85,8.83,13.28,13.25.63.63,1.39.94,2.04.93ZM53.06,13.97c-.73.02-1.38.02-2.03.23-2.81.94-5.08,3.61-4.93,7,.14,3.13,2.71,6.16,5.82,6.57,3.51.46,6.86-1.6,7.73-4.76.06-.22.28-.51.02-.69-.22-.15-.48.04-.69.16-1.05.62-2.1,1.25-3.16,1.85-1.25.71-2.7.35-3.43-.87-.66-1.1-1.3-2.22-1.91-3.35-.64-1.17-.23-2.6.91-3.27,1.11-.65,2.22-1.29,3.33-1.94.17-.1.47-.13.44-.42-.03-.31-.34-.37-.57-.4-.53-.07-1.06-.09-1.52-.13ZM27.97,51.9c0-3.45-2.5-6-5.89-6.02-3.42-.02-5.98,2.55-5.97,6.03,0,3.33,2.56,5.9,5.89,5.91,3.4.02,5.97-2.54,5.97-5.92ZM27.08,14.75c-.39-.06-.73-.01-1.03.29-2.97,2.98-5.95,5.95-8.93,8.91-.29.29-.3.48,0,.76.57.54,1.15,1.07,1.66,1.67.46.53.75.58,1.28.03,2.21-2.28,4.47-4.5,6.72-6.74,1.22-1.22,2.45-2.44,3.67-3.66.15-.15.36-.3.27-.55-.09-.25-.34-.25-.55-.28-1.02-.15-2.05-.29-3.08-.43ZM23.44,24.61c2.64,2.63,5.19,5.18,7.76,7.72.68.67,1.32,1.91,2.09,1.84.75-.07,1.39-1.24,2.12-1.88.43-.38.44-.62.02-1.03-2.95-2.91-5.88-5.84-8.8-8.78-.33-.33-.53-.43-.9-.05-.72.74-1.49,1.44-2.28,2.18ZM20.18,29.61c-.09-.14-.15-.28-.26-.38-1.79-1.8-3.59-3.59-5.39-5.39-.34-.34-.65-.31-.97.02-.17.18-.34.37-.54.52-.69.51-.68.96-.04,1.57,1.64,1.56,3.2,3.18,4.81,4.77.27.26.54.78,1,.43.53-.41,1.08-.85,1.38-1.53ZM40.39,41.58c.2-.16.35-.27.48-.39.62-.61,1.21-1.26,1.87-1.84.45-.4.17-.6-.1-.87-.27-.26-.47-.59-.88-.14-.59.64-1.23,1.24-1.84,1.86-.14.14-.44.27-.28.51.2.31.49.56.77.86Z"></path><path class="cls-2" d="M29.11,50.04c-.86-2.71-2.61-4.34-5.21-5.23,2.36-1.36,4.11-3.35,5.97-5.2,4.23-4.21,8.45-8.44,12.68-12.65,1.08-1.07,2-2.25,2.62-3.84.54,1.43,1.2,2.62,2.19,3.6.98.96,2.16,1.59,3.56,2.06-1.88.8-3.27,2.05-4.6,3.39-4.89,4.89-9.78,9.77-14.67,14.65-.94.93-1.77,1.95-2.53,3.22Z"></path><path class="cls-4" d="M22.11,56.17c-.11-.02-.19,0-.23-.04-.78-.72-1.7-1.06-2.77-1.11-.36-.01-.37-.49-.34-.79.05-.71-.13-1.28-.7-1.74-.46-.37-.46-.78-.02-1.18.54-.5.78-1.1.71-1.85-.04-.49.15-.89.76-.78.8.14,1.4-.23,1.92-.76.46-.47.89-.42,1.28.03.46.53,1,.84,1.73.73.61-.09.89.2.83.79-.08.72.16,1.28.71,1.74.52.44.51.95,0,1.35-.56.43-.77.96-.7,1.63.05.55-.13.94-.76.93-.79-.01-1.49.11-1.95.86-.08.12-.33.14-.47.19ZM24.89,51.89c-.12-.17-.25-.29-.29-.42-.33-1.01-.84-1.73-1.98-2.07-.49-.14-.7-.15-1.18.03-.93.35-1.54.84-1.76,1.81-.03.14-.2.24-.29.36-.11.13-.16.3-.04.43.45.47.7,1.01.7,1.68,0,.19.26.21.45.25.92.21,1.83.91,2.77,0,.08-.08.31,0,.46-.02.11-.02.3-.07.32-.14.15-.69.14-1.43.84-1.91Z"></path></g><g class="cls-7"><use transform="translate(-431.74 -285.29)" xlink:href="#image"></use></g><g class="cls-6"><use transform="translate(-940.74 -168.29)" xlink:href="#image"></use></g><g class="cls-5"><use transform="translate(-431.74 -46.29)" xlink:href="#image"></use></g></svg>