<svg xmlns="http://www.w3.org/2000/svg" id="Capa_1" height="512" viewBox="0 0 512 512" width="512"><g><path d="m228.825 451.875v-54.35h27.175l12.422-12.006-12.422-17.994h-27.175v-54.35h27.175l12.422-15.611-12.422-14.389h-27.175v-54.35h27.175l12.422-15.976-12.422-14.024h-27.175v-54.35h27.175l12.422-16.766-12.422-13.234h-27.175v-54.35h27.175l12.422-15.384-12.422-14.616h-27.175v-30.125h-30v30.125h-54.35v-30.125h-30v30.125h-54.35v-30.125h-30v30.125h-30.125v30h30.125v54.35h-30.125v30h30.125v54.35h-30.125v30h30.125v54.35h-30.125v30h30.125v54.35h-30.125v30h30.125v54.35h-30.125v30h30.125v30.125h30v-30.125h54.35v30.125h30v-30.125h54.35v30.125h30v-30.125h27.175l12.422-14.908-12.422-15.092zm-168.7-223.05h54.35v54.35h-54.35zm138.7 138.7h-39.225v30h39.225v54.35h-54.35v-39.289h-30v39.289h-54.35v-54.35h39.289v-30h-39.289v-54.35h54.35v39.225h30v-39.225h54.35zm0-84.35h-54.35v-54.35h54.35zm0-168.7h-39.225v30h39.225v54.35h-54.35v-39.225h-30v39.225h-54.35v-54.35h39.289v-30h-39.289v-54.35h54.35v39.225h30v-39.225h54.35z" fill="#505073"></path><path d="m512 60.125v-30h-30.125v-30.125h-30v30.125h-54.35v-30.125h-30v30.125h-54.351v-30.125h-30v30.125h-27.174v30h27.175v54.35h-27.175v30h27.175v54.35h-27.175v30h27.175v54.35h-27.175v30h27.175v54.35h-27.175v30h27.175v54.35h-27.175v30h27.175v30.125h30v-30.125h54.351v30.125h30v-30.125h54.35v30.125h30v-30.125h30.124v-30h-30.125v-54.35h30.125v-30h-30.125v-54.35h30.125v-30h-30.125v-54.35h30.125v-30h-30.125v-54.35h30.125v-30h-30.125v-54.35h30.125zm-198.825 168.7h54.351v54.35h-54.351zm138.7 138.7h-39.225v30h39.225v54.35h-54.35v-39.289h-30v39.289h-54.351v-54.35h39.226v-30h-39.226v-54.35h54.351v39.225h30v-39.225h54.35zm0-84.35h-54.35v-54.35h54.35zm0-168.7h-39.225v30h39.225v54.35h-54.35v-39.225h-30v39.225h-54.351v-54.35h39.226v-30h-39.226v-54.35h54.351v39.225h30v-39.225h54.35z" fill="#424163"></path><circle cx="129.475" cy="382.72" fill="#6ff1fb" r="37.469"></circle><circle cx="382.525" cy="382.72" fill="#07ccde" r="37.469"></circle><circle cx="129.475" cy="129.475" fill="#6ff1fb" r="37.469"></circle><circle cx="382.525" cy="129.475" fill="#07ccde" r="37.469"></circle></g></svg>