<svg xmlns="http://www.w3.org/2000/svg" xmlns:xlink="http://www.w3.org/1999/xlink" id="Ebene_1" data-name="Ebene 1" viewBox="0 0 72.04 72.03"><defs><style>      .cls-1 {        fill: #eff5ff;      }      .cls-1, .cls-2, .cls-3, .cls-4 {        stroke-width: 0px;      }      .cls-2 {        fill: #494a52;      }      .cls-3 {        fill: #ff0;      }      .cls-5 {        clip-path: url(#clippath-2);      }      .cls-4 {        fill: none;      }      .cls-6 {        clip-path: url(#clippath-1);      }      .cls-7 {        clip-path: url(#clippath);      }    </style><clipPath id="clippath"><path class="cls-4" d="M8.43,137.71h86v61.36c0,23.54-19.11,42.64-42.64,42.64h-.93c-23.41,0-42.42-19.01-42.42-42.42v-61.58h0Z"></path></clipPath><clipPath id="clippath-1"><path class="cls-4" d="M8.43,375.71h86v61.36c0,23.54-19.11,42.64-42.64,42.64h0c-23.93,0-43.36-19.43-43.36-43.36v-60.64h0Z"></path></clipPath><clipPath id="clippath-2"><path class="cls-4" d="M8.43,495.71h86v61.36c0,23.54-19.11,42.64-42.64,42.64h0c-23.93,0-43.36-19.43-43.36-43.36v-60.64h0Z"></path></clipPath><image id="image" width="1280" height="720"></image></defs><path class="cls-1" d="M35.11,72.02c-5.23-.42-11.46.71-17.62-1.01C7.76,68.29.27,59.12.11,48.99-.03,40.38-.04,31.76.11,23.15.31,10.89,11.02.26,23.28.09,31.76-.03,40.24-.02,48.73.09c12.43.16,23.11,10.92,23.25,23.38.09,8.36.08,16.73,0,25.09-.12,12.63-10.91,23.33-23.56,23.46-4.12.04-8.23,0-13.31,0Z"></path><g><path class="cls-2" d="M55.27,30.28c1.02-.59,1.94-1.12,2.87-1.64.93-.52,1.34-.29,1.36.79.02,1.68,0,3.37,0,5.05,0,7.97,0,15.94,0,23.91,0,1.58,0,1.58-1.6,1.58-9.57.01-19.15.04-28.72.04-5.17,0-10.34-.05-15.5-.02-.91,0-1.16-.37-1.16-1.18,0-6.76,0-13.52,0-20.29,0-.7.22-1.13.87-1.51,4.71-2.72,9.39-5.5,14.09-8.26,1.18-.69,1.56-.46,1.57.93,0,2,0,4,0,6,0,.99.05,1.02.93.51,4.26-2.49,8.53-4.98,12.79-7.47,1.11-.65,1.49-.44,1.49.83,0,2.1,0,4.19,0,6.29,0,.69.11.78.8.47,1.43-.64,1.96-1.54,2-3.18.14-5.16.5-10.32.83-15.47.08-1.2.17-2.4.18-3.61,0-.64.34-.94.94-.95,1.49-.01,2.98-.01,4.47,0,.6,0,.91.3.94.94.18,3.67.38,7.34.57,11.01.09,1.7.18,3.4.28,5.24ZM58.21,44.47c0-4.48,0-8.95,0-13.43,0-1.02-.02-1.03-.89-.52-4.27,2.48-8.53,4.98-12.8,7.46-1.2.7-1.52.51-1.53-.92-.02-1.94,0-3.87,0-5.81,0-1.22-.03-1.25-1.11-.62-4.21,2.46-8.41,4.93-12.61,7.39-.34.2-.68.55-1.12.3-.43-.24-.37-.7-.37-1.11,0-2.06,0-4.13,0-6.19,0-.67,0-1.07-.85-.56-4.16,2.48-8.34,4.91-12.53,7.34-.46.26-.58.57-.58,1.06.01,6.38.02,12.76,0,19.14,0,.63.18.81.8.81,4.12-.02,8.24-.02,12.37,0,.61,0,.81-.16.8-.79-.04-2.29-.02-4.57-.01-6.86,0-1.07.21-1.31,1.27-1.31,4.66-.01,9.32-.01,13.98,0,1.04,0,1.25.25,1.26,1.32,0,2.25.02,4.51-.01,6.76,0,.62.1.88.81.87,4.09-.04,8.18-.04,12.27,0,.73,0,.89-.23.89-.92-.03-4.48-.02-8.95-.01-13.43ZM48.49,34.25c1.66-.96,3.45-2.01,5.25-3.05.39-.22.35-.57.33-.92-.06-1.08-.13-2.15-.19-3.22-.16-3.16-.32-6.33-.47-9.49-.02-.48-.13-.77-.7-.74-.98.04-1.96.03-2.95,0-.5-.02-.67.19-.69.66-.07,1.49-.16,2.97-.24,4.46-.1,2.06-.2,4.11-.32,6.17-.12,2.04-.03,4.09-.03,6.13ZM35.38,55c0-1.05-.02-2.1.01-3.14.02-.54-.17-.71-.71-.7-1.62.03-3.23.03-4.85,0-.58-.01-.78.2-.77.78.02,2.03.03,4.06,0,6.09-.01.66.26.8.84.79,1.58-.03,3.17-.04,4.75,0,.61.01.75-.21.73-.77-.04-1.01-.01-2.03-.01-3.05ZM36.69,54.96c0,1.08.01,2.16,0,3.24,0,.44.13.62.59.62,1.68-.02,3.36-.01,5.04,0,.46,0,.7-.13.7-.65-.02-2.09-.02-4.19,0-6.29,0-.53-.2-.73-.73-.72-1.65.02-3.3.03-4.95,0-.5,0-.66.17-.65.66.03,1.05,0,2.09,0,3.14ZM51.22,15.63c.44,0,.88,0,1.32,0,.36,0,.78.11.75-.52-.03-.51-.13-.84-.74-.82-.88.03-1.76.02-2.64,0-.55-.01-.66.29-.7.77-.04.58.28.6.69.58.44-.02.88,0,1.32,0Z"></path><path class="cls-2" d="M41.68,10.6c2.98,0,5.95,0,8.93,0,.25,0,.51,0,.76.03.24.03.4.2.43.44.04.29-.13.5-.37.6-.2.07-.44.06-.66.06-6.05,0-12.09,0-18.14,0-.22,0-.46.02-.65-.05-.25-.1-.38-.34-.32-.62.1-.44.44-.47.81-.46,3.07,0,6.14,0,9.21,0h0Z"></path><path class="cls-2" d="M44.94,9.17c-1.17,0-2.34,0-3.52,0-.39,0-.83-.02-.86-.52-.02-.57.44-.61.87-.61,2.31,0,4.63,0,6.94,0,.44,0,.87.05.88.61,0,.66-.5.51-.9.52-1.14,0-2.28,0-3.42,0Z"></path><path class="cls-2" d="M38.5,14.3c-.76,0-1.52.01-2.28,0-.42,0-.79-.19-.78-.65,0-.44.41-.52.77-.53,1.55-.02,3.1-.04,4.65-.02.34,0,.83-.02.81.56-.02.57-.47.62-.89.63-.76.02-1.52,0-2.28,0,0,0,0,0,0,0Z"></path><path class="cls-3" d="M35.38,55c0,1.02-.03,2.03.01,3.05.02.56-.12.79-.73.77-1.58-.04-3.17-.03-4.75,0-.58,0-.86-.13-.84-.79.04-2.03.03-4.06,0-6.09,0-.58.19-.79.77-.78,1.62.03,3.23.03,4.85,0,.54,0,.73.16.71.7-.03,1.05-.01,2.09-.01,3.14Z"></path><path class="cls-3" d="M36.69,54.96c0-1.05.02-2.1,0-3.14-.01-.49.14-.67.65-.66,1.65.03,3.3.02,4.95,0,.53,0,.74.19.73.72-.02,2.09-.02,4.19,0,6.29,0,.52-.23.65-.7.65-1.68-.01-3.36-.02-5.04,0-.46,0-.6-.18-.59-.62.02-1.08,0-2.16,0-3.24Z"></path><path class="cls-2" d="M36.02,41.08c1.17,0,2.34.03,3.51-.01.67-.02.92.28.91.9,0,1.05,0,2.09,0,3.14,0,.65-.29.95-1,.94-2.28-.04-4.56-.04-6.84,0-.7.01-1-.28-1-.93,0-1.08,0-2.16,0-3.23,0-.6.3-.83.9-.81,1.17.03,2.34,0,3.51,0ZM36.01,44.86c.47,0,.95,0,1.42,0,1.92,0,1.9,0,1.81-1.95-.03-.54-.23-.71-.75-.71-1.29.02-2.59,0-3.88,0-1.94,0-1.92,0-1.8,1.91.03.51.22.75.74.74.82-.02,1.64,0,2.46,0Z"></path><path class="cls-2" d="M22.04,46.03c-1.14,0-2.28-.02-3.42,0-.7.02-.98-.29-.98-.96,0-1.02,0-2.03,0-3.05,0-.66.27-.97.98-.96,2.31.03,4.63.03,6.94,0,.66,0,.96.26.97.86.02,1.08.02,2.16,0,3.24-.01.6-.31.9-.97.88-1.17-.04-2.34-.01-3.52-.01ZM22.12,42.21c-.51,0-1.01,0-1.52,0-1.87.03-1.67-.32-1.71,1.73-.01.72.27.94.96.92,1.17-.04,2.34,0,3.51-.01,2.13-.01,1.83.27,1.88-1.97.01-.58-.25-.69-.75-.68-.79.02-1.58,0-2.37,0Z"></path><path class="cls-2" d="M49.99,41.08c1.14,0,2.28.02,3.42,0,.7-.02.99.28.99.95,0,1.02-.01,2.03,0,3.05,0,.67-.26.98-.97.97-2.31-.02-4.63-.03-6.94,0-.65,0-.96-.26-.98-.87-.03-1.08-.02-2.16,0-3.24.01-.6.3-.9.96-.87,1.17.04,2.34.01,3.52.01ZM49.95,42.21c-.47,0-.95,0-1.42,0-2.04.04-1.66-.32-1.73,1.77-.02.68.26.89.89.88,1.2-.03,2.4,0,3.61,0,1.95,0,1.93,0,1.85-1.92-.02-.52-.19-.75-.72-.73-.82.03-1.65,0-2.47,0Z"></path></g><g class="cls-7"><use transform="translate(-63.57 -285.29)" xlink:href="#image"></use></g><g class="cls-6"><use transform="translate(-572.57 -168.29)" xlink:href="#image"></use></g><g class="cls-5"><use transform="translate(-63.57 -46.29)" xlink:href="#image"></use></g></svg>