<svg xmlns="http://www.w3.org/2000/svg" id="Ebene_1" data-name="Ebene 1" viewBox="0 0 665.93 234.35"><defs><style>      .cls-1 {        fill: #000;      }      .cls-1, .cls-2 {        stroke-width: 0px;      }      .cls-2 {        fill: #ff0;      }    </style></defs><circle class="cls-2" cx="580.83" cy="126.96" r="85.1"></circle><path class="cls-1" d="M503.46,156.17c-6.94,7.18-13.9,14.3-22.56,19.54-8.78,5.31-17.9,9.51-28.19,10.88-19.45,2.58-31.84-7.08-34.06-26.63-.51-4.48-.3-8.94.32-13.28-1.65-.99-2.34.29-3.15.94-9.06,7.36-18.52,14.15-28.38,20.39-2.38,1.51-3.28,3.25-3.49,6.03-.55,7.29-1.07,14.6-2.49,21.81-4.58,23.28-24.62,39.25-48.36,38.47-15.02-.49-23.92-10.88-21.76-25.31.19-1.28.98-1.94,1.71-2.84,9.22-11.27,21.9-17.51,34.45-24.01,6.94-3.6,13.66-7.63,20.48-11.46,1.23-.69,2.01-1.59,2.14-3.11.7-8.45,1.48-16.89,2.26-25.78-2.06.57-2.86,1.87-3.57,3.25-6.46,12.56-16.47,21.58-28.59,28.4-5.82,3.28-12.04,4.52-18.77,2.85-4.47-1.11-10.05-6.26-10.87-10.8-.47-2.61-.89-5.22-1.36-8.02-1.68.26-2.77,1.1-3.62,2.29-5.8,8.04-14.23,13.05-22.28,18.19-11.23,7.18-23.18,1.6-26.09-11.32-1.97-8.73-.77-17.58-1.07-26.46-2.19-.16-2.16,1.85-2.71,2.93-7.04,13.83-16.69,25.54-28.25,35.83-5.48,4.88-12.06,6.45-18.92,7.02-2.69.22-5.02-1.97-6.95-4.08-5-5.46-7.56-11.77-7.21-19.26.06-1.27.99-3.28-1.03-3.87-1.96-.56-1.63,1.67-2.37,2.59-7.71,9.51-16.11,18.19-27.51,23.36-6.58,2.98-16.85-.61-20.49-6.86-4.54-7.8-5.76-15.53-4.04-24.78,5.01-26.8,10.39-53.53,15.24-80.36.3-1.67,2.1-4.68-.67-5.05-2.92-.39-6.84-2.16-9.15,1.47-12.08,18.92-29.77,30.51-50.18,38.51-2.72,1.07-5.82,1.15-8.73,1.71-9.96,1.92-19.76,5.2-30.17,2.96-2.3-.5-2.33,1.87-2.62,3.4-3.13,16.51-6.43,32.98-9.18,49.55-.81,4.9-3.06,9.9-.79,15.08.78,1.79-.42,2.63-1.99,3.31-5.7,2.51-11.55,4.05-17.85,4.2-4.16.1-5.42-1.82-4.96-5.45.43-3.46,1.1-6.9,1.65-10.35,1.01-6.35,1.85-12.73,3.07-19.04,2.44-12.66,4.96-25.31,7.75-37.9.88-3.98-.07-5.72-4.09-6.56-5.56-1.16-10.87-3.29-15.64-6.4-3.16-2.06-5.62-4.6-7.55-8.32-1.99-3.86.29-5.6,1.11-8.51,5.47,3.54,10.22,7.73,16.39,9.54,3.04.89,6.41.48,9.01,3.35,1.5,1.65,3.8,1.44,4.2-2.05,1.15-10.05,2.55-20.09,5.02-29.91,1.28-5.1,2.69-10.14,3.33-15.38.39-3.18.82-6.41-.74-9.3-1.51-2.8.08-3.51,2.18-4.12,4.15-1.2,8.27-2.58,12.49-3.49,8.16-1.76,11.68,1.75,10.21,10.13-1.58,9.01-3.36,17.98-5.04,26.97-1.65,8.83-3.22,17.68-4.95,26.49-.44,2.26-.77,3.9,2.45,3.84,23.44-.43,44.42-6.71,59.88-25.61,8.7-10.64,11.58-23.18,9.8-36.58-1.41-10.62-8.25-17.56-17.64-22.02-12.29-5.83-25.31-5.19-38.25-3.36-24.71,3.49-44.65,15.53-60.5,34.63-1.29,1.55-2.47,3.13-3.15,5.01-.53,1.48-1.39,3.11-2.88,2.88-1.46-.23-1.97-2.04-2.18-3.6-1.37-9.97,1.43-18.44,9.13-25.08,13.02-11.22,28.35-18,44.76-22.3C76.22-.07,97.31-2.18,118.51,2.86c23.07,5.48,33.82,21.72,30.5,45.19-.05.33-.13.66-.13.99,0,2.57-2.47,6.17-.36,7.38,2.73,1.56,6.65,1.24,10.03.16,3.48-1.1,7.01-2.03,10.97-4.48-1.98,10.86-3.76,20.88-5.63,30.88-4.14,22.14-8.47,44.25-12.35,66.43-.86,4.93-1.92,10.03-.19,15.23,1.8,5.43,5.67,8.16,11.38,7.22,4.24-.7,7.8-2.69,11.03-5.46,6.87-5.89,11.24-13.74,16.53-20.87,7.48-10.08,10.53-22.75,19.63-32.01,12.66-12.88,28-15.9,44.6-8.5,3.87,1.73,6.57,4.09,10.63-.44,3.27-3.65,8.82-3.22,14.03-2.88-6.67,16.09-8.99,32.74-8.78,49.81.03,2.48.21,5.01.73,7.42,1.78,8.3,6.38,10.53,13.81,6.32,5.87-3.32,11.77-6.87,15.56-12.73,1.52-2.34,4.02-3.26,5.84-5.14,3.72-3.84,5.9-8.53,8.42-13.13,7.1-12.97,16.1-24.31,30.5-29.76,9.56-3.62,19.18-3.59,28.44,1.41,2.97,1.61,5.2,2.09,6.49-2.24,1.46-4.93,9.79-8.9,14.62-7.66,2.1.54.97,1.7.67,2.63-5.7,17.7-7.48,36.12-9.99,54.41-.22,1.62-.24,3.27-.35,5,.75,0,1.33.18,1.68-.03,12.8-7.56,24.88-16.12,35.63-26.39,2.4-2.3,3.74-5.68,5.74-8.43,9.97-13.71,22.97-21.72,40.41-20.17,16.05,1.43,22.79,15.9,13.82,29.44-6.79,10.24-17.27,15.32-28.59,18.88-5.27,1.66-10.75,2.5-16.23,2.55-5.01.04-4.8,3.17-4.11,6.22,2.81,12.45,10.74,18.25,23.43,15.84,18.94-3.6,33.46-14.1,43.47-30.67,1.86-2.73,3.86-5.38,5.55-8.21,10.79-18.13,19.16-37.52,29.3-55.97,3.51-6.4,5.78-12.34,3.19-19.59-.87-2.42-.57-5.25-.8-7.9,4.72-2.27,9.39-4.64,14.18-6.74,2.02-.88,4.09-2.3,6.54-1.22,1.76,9.95,3.28,19.92,6.82,29.5,3.73,10.1,7.13,20.32,12.44,30.61,11.97-15.11,23.67-29.59,29.09-47.95,1.18-4.01,1.97-8.08,1.76-12.3,7.23,1.93,14.04,4.69,19.62,9.89-2.5,8.35-6.86,15.88-11.9,22.75-9.3,12.68-19.73,24.49-30.8,35.69-1.91,1.93-1.82,3.51-.84,5.64,2.97,6.48,8.4,10.89,13.05,16,4.12,4.53,9.29,7.09,14.92,8.97,6.01,2,12.65,2.02,17.98-.18,13.87-5.73,25-15.46,33.81-27.69,2.13,6.97,2.29,13.93-.07,20.88-4.93,4.58-9.63,9.4-14.56,13.98-7.2,6.7-15.34,11.53-24.16,14.7-17.74,6.38-38.32-1.91-48.82-17.71-3.1-4.66-6.59-9.24-10.29-14.02-7.57,10.59-13.84,21.28-18.94,32.66-4.75,10.6-8.6,21.5-11.2,32.83-5.31-3.26-10.06-7.09-13.12-12.66-.71-8.11,1.7-15.56,5.39-22.55,7.57-14.37,17.85-26.81,28.53-38.93,1.58-1.79,3.06-3.23,1.54-6.04-4.98-9.24-8.49-19.12-12.29-28.88-.33-.85.08-2.2-1.31-2.35-1.78-.19-1.42,1.49-1.89,2.42-8.06,15.62-16.5,31.01-25.8,45.95-4.21,6.75-9.8,12.45-13.84,19.28ZM206.32,155.03c.03,2.48-.18,6.31,1.13,10.01,2.28,6.42,8.13,8.56,13.9,4.96,3.71-2.31,6.68-5.49,9.51-8.75,10.4-11.95,18.72-25.39,27.5-38.5,1.33-1.98.56-2.92-1.06-3.96-4.2-2.7-8.54-5.12-13.23-6.9-12.45-4.71-21.47-1.71-28.59,9.62-6.17,9.83-9.04,20.62-9.15,33.51ZM324.49,151.84c.01,4.92.19,9.58,4.48,11.95,4.18,2.31,8.4.43,12.25-1.8,1.29-.75,2.56-1.57,3.72-2.5,12.59-10.01,22.19-22.49,30.07-36.39.78-1.37,1.28-2.56-.06-4-8.2-8.87-22.68-13.61-33.28-3.73-10.69,9.96-16.35,22.36-17.18,36.47ZM340.93,226.35c9.96.07,17.23-4.39,21.8-13.15,4.99-9.55,5.9-20,6.36-30.52.16-3.66-1.65-2.82-3.66-1.64-7.32,4.29-14.71,8.47-21.96,12.88-4.56,2.77-8.75,6.09-12.36,10.06-3.87,4.24-6.87,8.98-4.28,14.87,2.62,5.96,8.07,7.45,14.09,7.51ZM472.44,120.7c-.02-8.79-4.31-12.27-11.63-10.84-3.67.71-6.94,2.19-9.76,4.64-8.9,7.72-13.73,17.65-15.91,29.07-.56,2.93.26,3.95,3.28,3.54,10.29-1.4,19.59-4.91,27.13-12.31,4.31-4.23,6.97-9.24,6.89-14.11Z"></path></svg>