<svg xmlns="http://www.w3.org/2000/svg" xmlns:xlink="http://www.w3.org/1999/xlink" id="Ebene_1" data-name="Ebene 1" viewBox="0 0 72.04 72.03"><defs><style>      .cls-1 {        fill: #eff5ff;      }      .cls-1, .cls-2, .cls-3, .cls-4 {        stroke-width: 0px;      }      .cls-2 {        fill: #ff0;      }      .cls-5 {        clip-path: url(#clippath-2);      }      .cls-3 {        fill: none;      }      .cls-6 {        clip-path: url(#clippath-1);      }      .cls-7 {        clip-path: url(#clippath);      }      .cls-4 {        fill: #454950;      }    </style><clipPath id="clippath"><path class="cls-3" d="M-175.66,137.71h86v61.36c0,23.54-19.11,42.64-42.64,42.64h-.93c-23.41,0-42.42-19.01-42.42-42.42v-61.58h0Z"></path></clipPath><clipPath id="clippath-1"><path class="cls-3" d="M-175.66,375.71h86v61.36c0,23.54-19.11,42.64-42.64,42.64h0c-23.93,0-43.36-19.43-43.36-43.36v-60.64h0Z"></path></clipPath><clipPath id="clippath-2"><path class="cls-3" d="M-175.66,495.71h86v61.36c0,23.54-19.11,42.64-42.64,42.64h0c-23.93,0-43.36-19.43-43.36-43.36v-60.64h0Z"></path></clipPath><image id="image" width="1280" height="720"></image></defs><path class="cls-1" d="M35.11,72.02c-5.23-.42-11.46.71-17.62-1.01C7.76,68.29.27,59.12.11,48.99-.03,40.38-.04,31.76.11,23.15.31,10.89,11.02.26,23.28.09,31.76-.03,40.24-.02,48.73.09c12.43.16,23.11,10.92,23.25,23.38.09,8.36.08,16.73,0,25.09-.12,12.63-10.91,23.33-23.56,23.46-4.12.04-8.23,0-13.31,0Z"></path><g><path class="cls-4" d="M35.99,61.3c-5.55,0-11.1,0-16.66,0-1.24,0-1.29-.04-1.29-1.33,0-9.56,0-19.12,0-28.67,0-.28.18-.69-.21-.82-.3-.1-.45.27-.64.45-.89.86-1.75,1.75-2.64,2.62-.32.31-.67.81-1.16.34-.51-.49-.06-.89.3-1.24,5.53-5.51,11.05-11.02,16.58-16.53,1.62-1.62,3.24-3.24,4.87-4.85.73-.73,1.04-.73,1.78.01,7.15,7.12,14.3,14.25,21.45,21.38.21.21.5.39.49.75,0,.27-.1.48-.36.6-.31.14-.54,0-.75-.21-.99-.98-1.97-1.97-2.97-2.94-.17-.17-.32-.49-.58-.39-.33.12-.2.48-.2.74,0,9.56,0,19.12,0,28.67q0,1.43-1.46,1.43c-5.52,0-11.04,0-16.56,0ZM52.78,44.48c0-4.92,0-9.84,0-14.75,0-.63-.16-1.1-.62-1.56-5.19-5.15-10.36-10.31-15.52-15.48-.44-.45-.71-.52-1.2-.03-5.18,5.2-10.38,10.38-15.58,15.55-.4.4-.58.82-.58,1.39.01,9.9.02,19.8,0,29.69,0,.78.27.93.97.92,2.26-.03,4.53-.04,6.79,0,.72.01.94-.18.94-.92-.04-4.48-.03-8.97-.02-13.45.01-4.07,3.34-7.62,7.4-7.91,4.79-.35,8.74,3.34,8.74,8.15,0,4.39.02,8.78-.02,13.18,0,.79.23.98.99.97,2.17-.05,4.34-.06,6.51,0,.91.03,1.22-.18,1.21-1.16-.06-4.86-.03-9.71-.03-14.57ZM42.87,52.43c0-2.26.04-4.52,0-6.77-.07-3.67-3.11-6.6-6.79-6.61-3.62-.01-6.75,2.89-6.81,6.49-.07,4.64,0,9.28-.03,13.92,0,.58.21.74.76.74,4.03-.01,8.06-.02,12.1,0,.61,0,.8-.21.79-.81-.03-2.32-.01-4.64-.01-6.96Z"></path><path class="cls-2" d="M42.87,52.43c0,2.32-.02,4.64.01,6.96,0,.6-.18.81-.79.81-4.03-.02-8.06-.02-12.1,0-.55,0-.76-.16-.76-.74.02-4.64-.04-9.28.03-13.92.06-3.6,3.18-6.5,6.81-6.49,3.69.01,6.72,2.94,6.79,6.61.04,2.26,0,4.52,0,6.77Z"></path></g><g class="cls-7"><use transform="translate(-247.66 -285.29)" xlink:href="#image"></use></g><g class="cls-6"><use transform="translate(-756.66 -168.29)" xlink:href="#image"></use></g><g class="cls-5"><use transform="translate(-247.66 -46.29)" xlink:href="#image"></use></g></svg>