<svg xmlns="http://www.w3.org/2000/svg" id="Ebene_1" data-name="Ebene 1" viewBox="0 0 3649.28 474.56"><defs><style>      .cls-1 {        fill: none;      }      .cls-1, .cls-2, .cls-3, .cls-4, .cls-5, .cls-6, .cls-7 {        stroke-width: 0px;      }      .cls-2 {        fill: #179c52;      }      .cls-2, .cls-3, .cls-5, .cls-7 {        fill-rule: evenodd;      }      .cls-3 {        fill: #176bef;      }      .cls-4 {        fill: #fff;      }      .cls-5 {        fill: #ff3e30;      }      .cls-6 {        fill: #fbbc04;      }      .cls-7 {        fill: #f7b529;      }    </style></defs><g id="Layer_1" data-name="Layer 1"><path class="cls-3" d="m332.29,182.47h-157.7v46.8h111.85c-5.53,65.62-60.13,93.61-111.66,93.61-65.94,0-123.47-51.88-123.47-124.59s54.85-125.38,123.61-125.38c53.06,0,84.32,33.82,84.32,33.82l32.76-33.93s-42.05-46.82-118.76-46.82C75.57,25.97,0,108.41,0,197.45s71.08,172.33,175.73,172.33c92.04,0,159.41-63.05,159.41-156.29,0-19.67-2.86-31.04-2.86-31.04h0v.02h0Z"></path><path class="cls-5" d="m462.12,191.98c31.82,0,61.98,25.73,61.98,67.18s-30.03,67.04-62.12,67.04c-35.27,0-63.1-28.24-63.1-67.36s27.47-66.87,63.24-66.87h0Zm-.64-43.4c-64.71,0-111.09,50.59-111.09,109.6s44.99,111.4,111.85,111.4c60.53,0,110.13-46.26,110.13-110.12,0-73.19-57.69-110.88-110.89-110.88h0Z"></path><path class="cls-7" d="m703.72,191.98c31.83,0,61.99,25.73,61.99,67.18s-30.04,67.04-62.13,67.04c-35.26,0-63.09-28.24-63.09-67.36s27.47-66.87,63.23-66.87h0Zm-.64-43.4c-64.71,0-111.09,50.59-111.09,109.6s44.98,111.4,111.85,111.4c60.53,0,110.12-46.26,110.12-110.12,0-73.19-57.68-110.88-110.88-110.88h0Z"></path><path class="cls-3" d="m944.35,192.01c29.12,0,59.03,24.86,59.03,67.32s-29.85,66.95-59.67,66.95c-31.66,0-61.13-25.71-61.13-66.54s30.6-67.74,61.77-67.74h0Zm-4.3-43.32c-59.39,0-106.09,52.02-106.09,110.42,0,66.51,54.13,110.62,105.06,110.62,31.5,0,48.24-12.5,60.61-26.85v21.78c0,38.13-23.16,60.96-58.1,60.96s-50.68-25.1-56.56-39.34l-42.47,17.76c15.07,31.85,45.4,65.08,99.39,65.08,59.06,0,104.06-37.2,104.06-115.21v-198.57h-46.32v18.72c-14.24-15.35-33.73-25.36-59.59-25.36h.01Z"></path><path class="cls-5" d="m1253.9,190.93c20.19,0,34.72,10.73,40.89,23.6l-98.95,41.36c-4.27-32.02,26.07-64.96,58.06-64.96h0Zm-1.93-42.5c-56.03,0-103.07,44.58-103.07,110.36,0,69.61,52.44,110.89,108.45,110.89,46.76,0,75.45-25.58,92.58-48.5l-38.21-25.42c-9.91,15.38-26.48,30.42-54.14,30.42-31.06,0-45.35-17.01-54.2-33.48l148.18-61.49-7.69-18.02c-14.32-35.28-47.71-64.75-91.9-64.75h0Z"></path><path class="cls-2" d="m1078.25,363.11h48.67V37.4h-48.67v325.71Z"></path></g><path class="cls-1" d="m51.58-148.42h821.78v821.78H51.58V-148.42Z"></path><path class="cls-6" d="m2157.37,220.07c-1.87-5.75-6.84-9.91-12.83-10.79l-60.62-8.81-27.1-54.73c-5.36-10.83-23.08-10.83-28.46,0l-27.1,54.73-60.48,8.81c-5.96.88-10.93,5.06-12.81,10.81-1.87,5.72-.32,12.03,4.02,16.24l43.87,42.75-10.35,60.3c-1.02,5.94,1.44,11.98,6.31,15.53,4.89,3.53,11.39,3.99,16.73,1.19l54.02-28.48,54.17,28.48c2.31,1.22,4.87,1.83,7.38,1.83,3.29,0,6.57-1.02,9.35-3.02,4.89-3.58,7.33-9.59,6.31-15.53l-10.32-60.3,43.87-42.75c4.33-4.21,5.89-10.52,4.02-16.26h.02Z"></path><path class="cls-6" d="m2411.27,220.07c-1.87-5.75-6.84-9.91-12.83-10.79l-60.62-8.81-27.1-54.73c-5.36-10.83-23.08-10.83-28.46,0l-27.1,54.73-60.48,8.81c-5.96.88-10.93,5.06-12.81,10.81-1.87,5.72-.32,12.03,4.02,16.24l43.87,42.75-10.35,60.3c-1.02,5.94,1.44,12,6.31,15.53,4.89,3.53,11.39,3.99,16.73,1.19l54.02-28.48,54.17,28.48c2.31,1.22,4.84,1.83,7.38,1.83,3.29,0,6.57-1.02,9.35-3.02,4.89-3.58,7.33-9.59,6.31-15.53l-10.32-60.3,43.87-42.75c4.33-4.21,5.89-10.52,4.02-16.26h.02Z"></path><path class="cls-6" d="m2665.18,220.07c-1.87-5.75-6.84-9.91-12.83-10.79l-60.62-8.81-27.1-54.73c-5.36-10.83-23.08-10.83-28.46,0l-27.1,54.73-60.48,8.81c-5.96.88-10.93,5.06-12.81,10.81-1.87,5.72-.32,12.03,4.02,16.24l43.87,42.75-10.35,60.3c-1.02,5.94,1.44,11.98,6.31,15.53,4.89,3.53,11.39,3.99,16.73,1.19l54.02-28.48,54.17,28.48c2.31,1.22,4.84,1.83,7.38,1.83,3.29,0,6.57-1.02,9.35-3.02,4.89-3.58,7.33-9.59,6.31-15.53l-10.32-60.3,43.87-42.75c4.33-4.21,5.89-10.52,4.02-16.26h.02Z"></path><path class="cls-6" d="m2919.08,220.07c-1.87-5.75-6.84-9.91-12.83-10.79l-60.62-8.81-27.1-54.73c-5.36-10.83-23.08-10.83-28.46,0l-27.1,54.73-60.48,8.81c-5.96.88-10.93,5.06-12.81,10.81-1.87,5.72-.32,12.03,4.02,16.24l43.87,42.75-10.35,60.3c-1.02,5.94,1.44,11.98,6.31,15.53,4.89,3.53,11.39,3.99,16.73,1.19l54.02-28.48,54.17,28.48c2.31,1.22,4.84,1.83,7.38,1.83,3.29,0,6.57-1.02,9.35-3.02,4.89-3.58,7.33-9.59,6.31-15.53l-10.32-60.3,43.87-42.75c4.33-4.21,5.89-10.52,4.02-16.26h.02Z"></path><path class="cls-6" d="m3172.98,220.07c-1.9-5.75-6.84-9.91-12.83-10.79l-60.62-8.81-27.1-54.73c-5.36-10.83-23.08-10.83-28.46,0l-27.1,54.73-60.48,8.81c-5.96.88-10.93,5.06-12.81,10.81-1.87,5.72-.32,12.03,4.02,16.24l43.87,42.75-10.35,60.3c-1.02,5.94,1.44,11.98,6.31,15.53,2.75,2,6.04,3.02,9.32,3.02,2.53,0,5.09-.61,7.43-1.83l54.02-28.48,54.19,28.48c5.33,2.85,11.81,2.36,16.7-1.19,4.87-3.55,7.33-9.57,6.31-15.53l-10.32-60.3,43.87-42.75c4.33-4.21,5.87-10.52,4.02-16.26h.01Z"></path><g><path class="cls-4" d="m1554.39,353.4c-12.62,0-23.95-2.43-33.98-7.3s-18.03-11.56-24.01-20.09c-5.97-8.52-9.16-18.25-9.56-29.19h30.2c.74,8.86,4.67,16.14,11.78,21.84,7.11,5.71,15.64,8.56,25.57,8.56,7.92,0,14.95-1.83,21.09-5.49s10.97-8.71,14.5-15.15c3.52-6.44,5.29-13.79,5.29-22.05s-1.81-15.87-5.44-22.45c-3.63-6.58-8.61-11.74-14.95-15.5s-13.61-5.67-21.8-5.74c-6.24,0-12.52,1.07-18.83,3.22-6.31,2.15-11.41,4.97-15.3,8.46l-28.49-4.23,11.58-103.89h113.36v26.68h-87.48l-6.54,57.68h1.21c4.03-3.89,9.38-7.15,16.06-9.77,6.68-2.62,13.84-3.93,21.49-3.93,12.55,0,23.74,2.99,33.57,8.96s17.58,14.11,23.25,24.41c5.67,10.3,8.47,22.13,8.41,35.49.07,13.36-2.94,25.27-9.01,35.74-6.08,10.47-14.47,18.71-25.17,24.72-10.7,6.01-22.97,9.01-36.79,9.01h0Z"></path><path class="cls-4" d="m1675.09,352.49c-5.5,0-10.23-1.96-14.19-5.89-3.96-3.93-5.94-8.68-5.94-14.25s1.98-10.22,5.94-14.15,8.69-5.89,14.19-5.89,10.24,1.96,14.2,5.89,5.94,8.64,5.94,14.15c0,3.69-.92,7.06-2.77,10.12s-4.28,5.49-7.3,7.3-6.38,2.72-10.07,2.72h0Z"></path><path class="cls-4" d="m1799.22,354c-15.9-.07-29.5-4.26-40.77-12.58-11.28-8.32-19.9-20.44-25.87-36.34-5.97-15.91-8.96-35.07-8.96-57.48s3-41.44,9.01-57.28,14.66-27.92,25.97-36.24c11.31-8.32,24.85-12.48,40.62-12.48s29.3,4.18,40.57,12.53c11.27,8.36,19.92,20.44,25.92,36.24,6,15.81,9.01,34.88,9.01,57.23s-2.99,41.66-8.96,57.53-14.6,27.98-25.87,36.34-24.83,12.53-40.67,12.53Zm0-26.88c13.96,0,24.88-6.81,32.77-20.44,7.89-13.62,11.83-33.32,11.83-59.09,0-17.11-1.8-31.59-5.39-43.44-3.59-11.84-8.73-20.84-15.4-26.98-6.68-6.14-14.61-9.21-23.81-9.21-13.89,0-24.8,6.84-32.72,20.54-7.92,13.69-11.91,33.39-11.98,59.09,0,17.18,1.79,31.69,5.38,43.54s8.71,20.81,15.35,26.88,14.63,9.11,23.96,9.11h.01Z"></path></g><g><path class="cls-4" d="m3222.72,358.88c-3.69,0-7.01-.71-9.95-2.14s-5.28-3.38-7.03-5.88-2.68-5.34-2.8-8.55h8.84c.22,2.59,1.37,4.73,3.45,6.4,2.08,1.67,4.58,2.51,7.49,2.51,2.32,0,4.38-.54,6.17-1.61,1.8-1.07,3.21-2.55,4.24-4.44s1.55-4.04,1.55-6.46-.53-4.65-1.59-6.57c-1.06-1.93-2.52-3.44-4.38-4.54-1.86-1.1-3.98-1.66-6.38-1.68-1.83,0-3.67.31-5.51.94-1.85.63-3.34,1.45-4.48,2.48l-8.34-1.24,3.39-30.42h33.19v7.81h-25.61l-1.92,16.89h.35c1.18-1.14,2.75-2.09,4.7-2.86,1.96-.77,4.05-1.15,6.29-1.15,3.67,0,6.95.87,9.83,2.62,2.88,1.75,5.15,4.13,6.81,7.15,1.66,3.02,2.48,6.48,2.46,10.39.02,3.91-.86,7.4-2.64,10.46-1.78,3.07-4.24,5.48-7.37,7.24-3.13,1.76-6.72,2.64-10.77,2.64h.01Z"></path><path class="cls-4" d="m3254.26,358.06v-6.6l20.43-21.16c2.18-2.3,3.98-4.32,5.41-6.06,1.42-1.74,2.49-3.39,3.2-4.97.71-1.57,1.06-3.24,1.06-5.01,0-2-.47-3.74-1.41-5.2-.94-1.46-2.23-2.59-3.86-3.39-1.63-.8-3.47-1.19-5.51-1.19-2.16,0-4.05.44-5.66,1.33s-2.85,2.13-3.71,3.74c-.87,1.61-1.3,3.5-1.3,5.66h-8.7c0-3.67.84-6.89,2.54-9.64,1.69-2.75,4.01-4.89,6.96-6.41s6.3-2.28,10.05-2.28,7.14.75,10.04,2.25c2.9,1.5,5.16,3.55,6.79,6.13,1.63,2.58,2.45,5.5,2.45,8.74,0,2.24-.42,4.43-1.25,6.57s-2.28,4.52-4.35,7.15c-2.06,2.62-4.93,5.8-8.61,9.53l-12,12.56v.44h27.18v7.81h-39.75,0Z"></path><path class="cls-4" d="m3327.98,358.06v-60.36h22.11c4.28,0,7.83.7,10.64,2.11,2.81,1.41,4.91,3.3,6.31,5.69,1.39,2.39,2.09,5.07,2.09,8.06,0,2.52-.46,4.63-1.39,6.35-.92,1.72-2.16,3.09-3.7,4.13-1.54,1.03-3.24,1.78-5.08,2.25v.59c2,.1,3.96.74,5.88,1.93s3.5,2.87,4.76,5.05,1.89,4.83,1.89,7.96-.72,5.85-2.17,8.3-3.67,4.38-6.68,5.81c-3.01,1.42-6.85,2.14-11.52,2.14h-23.14Zm9.1-34.25h12.2c2.04,0,3.89-.39,5.53-1.18,1.64-.79,2.95-1.89,3.92-3.32.97-1.42,1.46-3.11,1.46-5.05,0-2.5-.88-4.59-2.62-6.28-1.75-1.69-4.43-2.53-8.05-2.53h-12.44v18.36h0Zm0,26.43h13.15c4.36,0,7.49-.84,9.37-2.54,1.89-1.69,2.83-3.8,2.83-6.34,0-1.91-.48-3.65-1.44-5.25-.96-1.59-2.33-2.86-4.11-3.8s-3.89-1.42-6.32-1.42h-13.47v19.34h-.01Z"></path><path class="cls-4" d="m3401.07,358.97c-4.46,0-8.3-.96-11.51-2.87-3.21-1.92-5.69-4.62-7.43-8.11s-2.61-7.58-2.61-12.28.87-8.72,2.61-12.26,4.18-6.3,7.31-8.28c3.13-1.98,6.8-2.98,11.01-2.98,2.55,0,5.03.42,7.43,1.27,2.4.85,4.55,2.17,6.46,3.98s3.41,4.15,4.51,7.03,1.65,6.37,1.65,10.48v3.12h-35.99v-6.6h27.35c0-2.32-.47-4.38-1.41-6.17s-2.27-3.22-3.96-4.26c-1.7-1.04-3.69-1.56-5.97-1.56-2.48,0-4.63.6-6.47,1.81s-3.25,2.78-4.25,4.72-1.49,4.03-1.49,6.29v5.16c0,3.03.54,5.6,1.61,7.72s2.57,3.74,4.5,4.85c1.93,1.11,4.17,1.67,6.75,1.67,1.67,0,3.19-.24,4.57-.72,1.38-.48,2.56-1.2,3.57-2.17,1-.96,1.77-2.15,2.3-3.57l8.34,1.5c-.67,2.46-1.86,4.6-3.58,6.44s-3.87,3.26-6.46,4.27c-2.58,1.01-5.53,1.52-8.83,1.52h-.01Z"></path><path class="cls-4" d="m3430.31,358.06v-45.27h8.52v7.19h.47c.83-2.44,2.28-4.36,4.38-5.76,2.09-1.4,4.47-2.11,7.12-2.11.55,0,1.2.02,1.96.06s1.35.09,1.78.15v8.43c-.35-.1-.98-.21-1.89-.34-.9-.13-1.81-.19-2.71-.19-2.08,0-3.94.44-5.56,1.31s-2.9,2.08-3.85,3.63c-.94,1.54-1.42,3.3-1.42,5.26v27.65h-8.81.01Z"></path><path class="cls-4" d="m3466.65,305.8c-1.53,0-2.84-.52-3.93-1.55-1.09-1.03-1.64-2.26-1.64-3.7s.54-2.7,1.64-3.73c1.09-1.03,2.4-1.55,3.93-1.55s2.84.52,3.93,1.55c1.09,1.03,1.64,2.26,1.64,3.7s-.54,2.7-1.64,3.73c-1.09,1.03-2.4,1.55-3.93,1.55Zm-4.45,52.26v-45.27h8.81v45.27h-8.81Z"></path><path class="cls-4" d="m3501.93,358.97c-4.38,0-8.15-1-11.3-2.99-3.15-1.99-5.58-4.75-7.26-8.27-1.69-3.52-2.54-7.55-2.54-12.08s.86-8.66,2.59-12.19,4.17-6.28,7.31-8.27c3.14-1.98,6.85-2.98,11.11-2.98,3.44,0,6.5.63,9.2,1.9,2.69,1.27,4.87,3.04,6.53,5.32s2.65,4.94,2.96,7.99h-8.58c-.47-2.12-1.55-3.95-3.23-5.48s-3.92-2.3-6.73-2.3c-2.46,0-4.6.64-6.44,1.93-1.84,1.29-3.27,3.11-4.29,5.48-1.02,2.37-1.53,5.16-1.53,8.39s.5,6.15,1.5,8.55,2.42,4.25,4.26,5.57,4,1.97,6.5,1.97c1.67,0,3.19-.31,4.55-.93,1.37-.62,2.51-1.51,3.45-2.67.93-1.16,1.59-2.55,1.96-4.19h8.58c-.31,2.93-1.27,5.54-2.86,7.84s-3.72,4.11-6.38,5.42c-2.66,1.32-5.78,1.97-9.36,1.97v.02h0Z"></path><path class="cls-4" d="m3538.81,331.17v26.88h-8.81v-60.36h8.69v22.46h.56c1.06-2.44,2.68-4.37,4.86-5.81,2.18-1.43,5.03-2.15,8.55-2.15,3.1,0,5.82.64,8.15,1.92,2.33,1.28,4.14,3.18,5.42,5.7,1.29,2.53,1.93,5.67,1.93,9.45v28.8h-8.81v-27.74c0-3.32-.86-5.9-2.56-7.74-1.71-1.84-4.09-2.76-7.13-2.76-2.08,0-3.95.44-5.59,1.33s-2.93,2.18-3.86,3.88c-.93,1.7-1.4,3.75-1.4,6.15h0Z"></path><path class="cls-4" d="m3601.08,312.78v7.07h-24.73v-7.07h24.73Zm-18.09-10.84h8.81v42.83c0,1.71.25,2.99.77,3.85.51.85,1.17,1.43,1.99,1.74.81.3,1.7.46,2.67.46.71,0,1.33-.05,1.86-.15s.94-.18,1.24-.24l1.59,7.28c-.51.2-1.24.4-2.18.6-.94.21-2.12.32-3.54.34-2.32.04-4.48-.37-6.48-1.24-2-.86-3.63-2.2-4.86-4.01-1.24-1.81-1.86-4.08-1.86-6.81v-44.65h-.01Z"></path><path class="cls-4" d="m3629.85,358.97c-4.46,0-8.3-.96-11.51-2.87-3.21-1.92-5.69-4.62-7.43-8.11s-2.61-7.58-2.61-12.28.87-8.72,2.61-12.26,4.18-6.3,7.31-8.28c3.13-1.98,6.8-2.98,11.01-2.98,2.55,0,5.03.42,7.43,1.27,2.4.85,4.55,2.17,6.46,3.98s3.41,4.15,4.51,7.03,1.65,6.37,1.65,10.48v3.12h-35.99v-6.6h27.35c0-2.32-.47-4.38-1.41-6.17s-2.27-3.22-3.96-4.26c-1.7-1.04-3.69-1.56-5.97-1.56-2.48,0-4.63.6-6.47,1.81s-3.25,2.78-4.25,4.72-1.49,4.03-1.49,6.29v5.16c0,3.03.54,5.6,1.61,7.72s2.57,3.74,4.5,4.85c1.93,1.11,4.17,1.67,6.75,1.67,1.67,0,3.19-.24,4.57-.72,1.38-.48,2.56-1.2,3.57-2.17,1-.96,1.77-2.15,2.3-3.57l8.34,1.5c-.67,2.46-1.86,4.6-3.58,6.44s-3.87,3.26-6.46,4.27c-2.58,1.01-5.53,1.52-8.83,1.52h-.01Z"></path></g></svg>