<svg xmlns="http://www.w3.org/2000/svg" xmlns:xlink="http://www.w3.org/1999/xlink" id="Ebene_1" data-name="Ebene 1" viewBox="0 0 72.04 72.03"><defs><style>      .cls-1 {        fill: #eff5ff;      }      .cls-1, .cls-2, .cls-3, .cls-4 {        stroke-width: 0px;      }      .cls-2 {        fill: #ff0;      }      .cls-5 {        clip-path: url(#clippath-2);      }      .cls-3 {        fill: none;      }      .cls-6 {        clip-path: url(#clippath-1);      }      .cls-7 {        clip-path: url(#clippath);      }      .cls-4 {        fill: #484a50;      }    </style><clipPath id="clippath"><path class="cls-3" d="M-267.7,137.71h86v61.36c0,23.54-19.11,42.64-42.64,42.64h-.93c-23.41,0-42.42-19.01-42.42-42.42v-61.58h0Z"></path></clipPath><clipPath id="clippath-1"><path class="cls-3" d="M-267.7,375.71h86v61.36c0,23.54-19.11,42.64-42.64,42.64h0c-23.93,0-43.36-19.43-43.36-43.36v-60.64h0Z"></path></clipPath><clipPath id="clippath-2"><path class="cls-3" d="M-267.7,495.71h86v61.36c0,23.54-19.11,42.64-42.64,42.64h0c-23.93,0-43.36-19.43-43.36-43.36v-60.64h0Z"></path></clipPath><image id="image" width="1280" height="720"></image></defs><path class="cls-1" d="M35.11,72.02c-5.23-.42-11.46.71-17.62-1.01C7.76,68.29.27,59.12.11,48.99-.03,40.38-.04,31.76.11,23.15.31,10.89,11.02.26,23.28.09,31.76-.03,40.24-.02,48.73.09c12.43.16,23.11,10.92,23.25,23.38.09,8.36.08,16.73,0,25.09-.12,12.63-10.91,23.33-23.56,23.46-4.12.04-8.23,0-13.31,0Z"></path><g><path class="cls-4" d="M53.76,40.09c0,.95.07,1.91-.01,2.85-.32,3.52.48,6.85,1.57,10.16.72,2.2,1.33,4.45,1.98,6.68.03.12.07.24.08.36.02.37.27.86-.35.96-.5.08-.66-.32-.78-.72-1.27-4.31-2.61-8.6-3.8-12.93-.6-2.16-1.73-3.6-4-3.99-.21-.04-.41-.12-.62-.16-.92-.21-1.9-.7-2.76-.55-.92.16-.86,1.45-1.37,2.18-1.31,1.84-3.12,2.39-5.19,1.45-.61-.28-1.23-.54-1.84-.83-1.14-.55-2.29-.52-3.44-.09-.63.23-1.26.5-1.84.83-2.62,1.51-4.57-.09-5.62-1.72-.36-.55-.38-1.48-.98-1.65-.57-.16-1.29.22-1.95.35-1.74.34-3.32.96-4.13,2.7-.36.77-.59,1.6-.88,2.41-1.42,3.93-2.85,7.87-4.27,11.8-.05.14-.08.3-.15.43-.17.32-.43.55-.81.42-.38-.13-.36-.48-.27-.77.29-.9.61-1.79.93-2.68,1.39-3.85,2.76-7.71,4.19-11.55.69-1.86,1.98-3.13,4-3.55.39-.08.77-.22,1.16-.29,1.19-.23,2.45-.34,2.22-2.11-.04-.31.18-.73.4-1,.5-.61.35-1.05-.13-1.61-1.51-1.77-2.16-3.91-2.17-6.19-.02-3.61-.15-7.23.07-10.84.32-5.13,4.84-9.41,9.98-9.42,1.95,0,3.91-.18,5.86.24,4.41.94,7.99,5.26,8.01,9.77.02,3.55.04,7.11,0,10.66-.03,2.27-.81,4.31-2.34,6.02-.38.42-.51.71-.11,1.21.42.53.69,1.19.64,1.88-.05.6.24.81.74.92,1.16.25,2.33.5,3.49.79.72.18,1,.08.98-.78-.06-3.09.05-6.19-.06-9.28-.05-1.38.29-2.44,1.39-3.25.73-.54.98-1.02.11-1.73-.65-.53-.54-.88.25-1.29,1.74-.9,3.49-1.78,5.22-2.68.64-.33,1.12-.25,1.61.32,1.29,1.5,1.32,1.48.45,3.24-.72,1.45-1.45,2.9-2.18,4.35-.27.54-.58.72-1.15.31-.31-.22-.49-.92-.96-.59-.57.4-1.2.86-1.16,1.75.04.95,0,1.9,0,2.85,0,1.47,0,2.94,0,4.41ZM41.54,29.27c1.13,0,2.27-.03,3.4.01.53.02.68-.17.67-.68-.02-2.02-.03-4.04,0-6.06.01-.61-.25-.7-.76-.69-6.67.01-13.34.01-20.02,0-.57,0-.73.18-.72.74.03,1.99.03,3.98,0,5.97,0,.55.14.75.72.73,1.41-.04,2.83-.12,4.22.01,2.11.21,3.91-.16,5.19-2.03.38-.56.92-.52,1.28.02,1.25,1.86,3.03,2.26,5.1,1.99.3-.04.61,0,.92,0ZM34.75,20.76c3.37,0,6.73,0,10.1,0,.39,0,.81.1.71-.58-.54-3.57-2.52-6.04-5.79-7.45-2.14-.93-4.45-.74-6.7-.66-4.54.17-8.09,3.38-8.87,7.83-.13.72.02.88.73.87,3.27-.03,6.55-.02,9.82-.02ZM28.44,30.51c-1.22,0-2.45,0-3.67,0-.34,0-.65-.05-.66.49-.04,2.41.71,4.5,2.33,6.28.18.2.39.35.64.21,1.4-.81,3.31-.93,3.87-2.89.11-.4.42-.75.67-1.09,1.64-2.21,4.27-2.36,6.15-.36.64.68,1.04,1.5,1.43,2.34.17.38.41.67.8.84.75.33,1.52.65,2.25,1.03.51.27.83.17,1.18-.25,1.44-1.71,2.17-3.65,2.17-5.89,0-.57-.15-.73-.72-.72-1.78.04-3.56-.09-5.33.04-1.72.13-3.13-.21-4.14-1.68-.33-.48-.73-.55-1.09-.03-1.04,1.5-2.48,1.93-4.22,1.69-.54-.07-1.1-.01-1.65-.01ZM34.83,43.97c2.4.22,4.26-2.03,4.33-3.76.11-2.51-.86-4.66-2.54-6.47-1.01-1.09-2.53-1.05-3.58.03-1.43,1.47-2.26,3.29-2.49,5.3-.32,2.81,1.58,4.9,4.27,4.9ZM37.47,44.58c.51.26.91.49,1.33.67,1.71.7,3.19.59,4.08-1.25.4-.83.81-1.65.96-2.55.15-.93-.07-1.8-.85-2.36-.85-.61-1.86-.93-2.92-1.4.67,2.93,0,5.25-2.6,6.9ZM32.22,44.57c-2.59-1.63-3.25-3.97-2.58-6.9-.79.36-1.47.68-2.16.99-.17.08-.34.15-.49.24-.95.62-1.45,1.68-1.17,2.67.31,1.12.81,2.18,1.49,3.14.42.59.98.85,1.71.91,1.21.09,2.16-.49,3.2-1.05ZM52.66,44.5v-.99c0-3.24.02-6.48-.01-9.71-.01-1.33-.13-2.65,1.21-3.49.24-.15.31-.38.03-.59-.23-.17-.34-.56-.71-.46-.55.14-1.84,1.95-1.84,2.56,0,3.33.05,6.66-.03,9.99-.03,1.13.19,2.01,1.34,2.7ZM56.02,30.15c.31,0,.43-.18.53-.37.64-1.28,1.27-2.57,1.91-3.85.16-.32.27-.6-.11-.88-.32-.24-.56-.56-1.04-.32-1.3.66-2.62,1.3-3.93,1.96-.32.16-.42.36-.09.68.81.79,1.57,1.62,2.35,2.44.12.13.27.24.37.33Z"></path><path class="cls-2" d="M41.54,29.27c-.31,0-.62-.03-.92,0-2.07.27-3.85-.13-5.1-1.99-.36-.54-.9-.58-1.28-.02-1.28,1.87-3.07,2.24-5.19,2.03-1.39-.14-2.81-.05-4.22-.01-.58.02-.72-.19-.72-.73.03-1.99.03-3.98,0-5.97,0-.56.16-.74.72-.74,6.67.02,13.34.01,20.02,0,.51,0,.77.09.76.69-.04,2.02-.03,4.04,0,6.06,0,.51-.14.7-.67.68-1.13-.04-2.26-.01-3.4-.01Z"></path></g><g class="cls-7"><use transform="translate(-339.7 -285.29)" xlink:href="#image"></use></g><g class="cls-6"><use transform="translate(-848.7 -168.29)" xlink:href="#image"></use></g><g class="cls-5"><use transform="translate(-339.7 -46.29)" xlink:href="#image"></use></g></svg>