<svg xmlns="http://www.w3.org/2000/svg" xmlns:xlink="http://www.w3.org/1999/xlink" id="Ebene_1" data-name="Ebene 1" viewBox="0 0 72.04 72.03"><defs><style>      .cls-1 {        fill: #eff5ff;      }      .cls-1, .cls-2, .cls-3, .cls-4 {        stroke-width: 0px;      }      .cls-2 {        fill: #474951;      }      .cls-3 {        fill: #ff0;      }      .cls-5 {        clip-path: url(#clippath-2);      }      .cls-4 {        fill: none;      }      .cls-6 {        clip-path: url(#clippath-1);      }      .cls-7 {        clip-path: url(#clippath);      }    </style><clipPath id="clippath"><path class="cls-4" d="M-83.61,135.71H2.39v61.36c0,23.54-19.11,42.64-42.64,42.64h-.93c-23.41,0-42.42-19.01-42.42-42.42v-61.58h0Z"></path></clipPath><clipPath id="clippath-1"><path class="cls-4" d="M-83.61,373.71H2.39v61.36c0,23.54-19.11,42.64-42.64,42.64h0c-23.93,0-43.36-19.43-43.36-43.36v-60.64h0Z"></path></clipPath><clipPath id="clippath-2"><path class="cls-4" d="M-83.61,493.71H2.39v61.36c0,23.54-19.11,42.64-42.64,42.64h0c-23.93,0-43.36-19.43-43.36-43.36v-60.64h0Z"></path></clipPath><image id="image" width="1280" height="720"></image></defs><path class="cls-1" d="M35.11,72.02c-5.23-.42-11.46.71-17.62-1.01C7.76,68.29.27,59.12.11,48.99-.03,40.38-.04,31.76.11,23.15.31,10.89,11.02.26,23.28.09,31.76-.03,40.24-.02,48.73.09c12.43.16,23.11,10.92,23.25,23.38.09,8.36.08,16.73,0,25.09-.12,12.63-10.91,23.33-23.56,23.46-4.12.04-8.23,0-13.31,0Z"></path><g><path class="cls-2" d="M39.02,20.62c1.55-2.42,3.4-4.57,5.42-6.6,2.63-2.63,5.54-4.87,8.68-6.84.43-.27.96-.72,1.36-.09.37.6-.19.9-.65,1.19-5.34,3.41-10.1,7.43-13.56,12.82-.38.6-.45,1.02.02,1.55,1.17,1.33,1.49,2.79.65,4.43-.07.14.77,2.58.9,2.58.63-.01,1.02-.32,1.16-.97.3-1.32.66-2.63.94-3.96.17-.79.57-1.27,1.34-1.56,1.93-.71,3.83-1.49,5.74-2.26.53-.22,1.09-.38,1.32.27.23.63-.39.81-.83.99-1.74.71-3.48,1.41-5.24,2.07-.68.26-1.06.66-1.19,1.41-.24,1.3-.62,2.57-.91,3.86-.14.62-.55.9-1.09,1.14-1.85.83-1.97,1.16-1.41,3.13.25.87.48,1.75.65,2.63.12.64.35.81.99.54.77-.32,1.59-.52,2.38-.78.59-.2.95-.04,1.27.53.82,1.45,1.82,2.82,2.54,4.32.89,1.87,2.45,2.95,4.09,4.01,1.75,1.13,3.48,2.3,5.23,3.45.4.26.8.54.47,1.08-.33.54-.76.34-1.17.07-2.59-1.71-5.2-3.38-7.74-5.16-1.23-.86-1.64-2.39-2.44-3.59-.56-.84-1.06-1.72-1.55-2.6-.31-.57-.65-.76-1.34-.53-2.28.74-2.27.7-2.13,3.06.06.97.09,1.95-.1,2.92-.1.53.05.75.63.73,1.26-.04,2.51,0,3.77-.02.86-.02,1.15.32.88,1.15-.93,2.8-1.85,5.61-2.78,8.41-.32.96-.66,1.9-.98,2.86-.18.54-.16,1.09.02,1.64.75,2.24,1.49,4.49,2.24,6.73.16.49.45,1.08-.26,1.32-.67.22-.77-.39-.93-.85-.78-2.35-1.53-4.7-2.35-7.04-.29-.81-.21-1.53.06-2.31,1.08-3.16,2.13-6.33,3.18-9.5.38-1.17.37-1.17-.92-1.17-.21,0-.42,0-.63,0q-2.15,0-2.55,2.12c-.52,2.83-1.9,5.22-3.76,7.35-1.16,1.32-3.12,1.14-4.3-.26-2.06-2.43-3.34-5.21-3.8-8.35-.1-.7-.36-.94-1.06-.87-.66.07-1.33.07-1.99,0-1.01-.1-1.08.3-.8,1.13,1.06,3.13,2.06,6.27,3.15,9.39.31.89.4,1.7.08,2.61-.82,2.33-1.58,4.69-2.35,7.03-.15.46-.33.93-.92.72-.58-.21-.44-.71-.29-1.15.74-2.25,1.47-4.5,2.23-6.74.23-.66.26-1.28.04-1.93-1.18-3.49-2.36-6.99-3.53-10.48-.08-.23-.12-.47-.19-.7-.25-.77.01-1.12.83-1.11,1.29.02,2.58-.01,3.88.02.52.01.67-.17.59-.67-.25-1.49-.13-2.99.07-4.47.08-.59-.09-.85-.63-.95-.07-.01-.14-.02-.21-.04q-2.44-.77-3.72,1.51c-.65,1.15-1.35,2.27-2,3.43-.58,1.03-1.58,1.52-2.51,2.14-2.06,1.37-4.1,2.76-6.15,4.14-.44.3-.93.68-1.32,0-.35-.6.19-.85.6-1.12,2.49-1.66,4.99-3.3,7.47-4.98.9-.61,1.19-1.69,1.76-2.55.89-1.37,1.72-2.78,2.53-4.2.3-.52.64-.69,1.19-.51.83.27,1.67.51,2.48.81.5.19.75.16.89-.43.29-1.22.64-2.42.98-3.62.24-.84-.14-1.63-.8-1.8-1.92-.49-2.23-2.02-2.39-3.51-.24-2.31-1.35-3.6-3.59-4.16-1.2-.3-2.34-.9-3.49-1.39-.38-.16-.87-.35-.67-.88.2-.51.65-.54,1.15-.34,2.1.85,4.2,1.69,6.31,2.51.59.23.84.68.97,1.25.3,1.32.62,2.64.93,3.96.08.35.24.66.53.88.36.27.62.35.81-.23.33-1.01,1-1.84.37-3.11-.49-.98-.13-2.21.72-3.09.71-.74.67-1.37.08-2.25-3.43-5.15-8.02-9.05-13.16-12.37-.12-.08-.24-.14-.36-.21-.43-.24-.79-.58-.52-1.09.3-.55.8-.31,1.18-.06,1.39.92,2.81,1.82,4.13,2.83,3.75,2.88,7.11,6.16,9.74,10.12.35.53.52.63,1.03.12,1.29-1.28,2.87-1.09,4.65.5ZM37.12,54.51c.98-.85,1.58-1.71,2.06-2.62,3.04-5.85,2.8-11.92,1.11-18.07-.14-.51-.44-.6-.92-.6-1.85.03-3.7.09-5.55-.01-.95-.05-1.28.3-1.49,1.13-.9,3.43-1.27,6.91-.87,10.44.36,3.15,1.21,6.14,3.22,8.68.25.32.43.78,1,.85,0-4.66,0-9.26,0-13.86,0-.62-.23-1.56.73-1.54.95.02.7.96.7,1.57.01,4.6,0,9.19,0,14.02ZM36.37,27.52c.49,0,.98.03,1.46,0,1.93-.15,2.83-1.87,1.79-3.49-.62-.96-1.31-1.88-2.05-2.76-.7-.84-1.64-.86-2.32-.03-.82.99-1.57,2.03-2.27,3.11-.62.97-.23,2.15.76,2.78.83.53,1.74.37,2.63.4ZM37.13,30.01c.02,1.94-.26,1.71,1.54,1.73.21,0,.42,0,.63,0,.9-.06,1.4-.64,1.25-1.53-.1-.62-.3-1.27-.73-1.69-.36-.35-.81.21-1.24.22-.03,0-.07.02-.1,0-1.16-.18-1.58.33-1.33,1.27ZM35.66,30.26c0-1.36-.65-1.87-2.36-1.86-.42,0-1.05,1.3-1.03,2.11.03,1.01.44,1.12,2.29,1.26,1.43.11,1.05-.78,1.09-1.51Z"></path><path class="cls-3" d="M37.13,30.01c-.25-.94.17-1.45,1.33-1.27.03,0,.07,0,.1,0,.44-.01.89-.57,1.24-.22.43.43.63,1.08.73,1.69.15.89-.35,1.47-1.25,1.53-.21.01-.42,0-.63,0-1.8-.02-1.52.22-1.54-1.73Z"></path><path class="cls-3" d="M35.66,30.26c-.04.73.33,1.62-1.09,1.51-1.85-.14-2.27-.25-2.29-1.26-.02-.81.61-2.1,1.03-2.11,1.71-.01,2.36.5,2.36,1.86Z"></path></g><g class="cls-7"><use transform="translate(-155.61 -287.29)" xlink:href="#image"></use></g><g class="cls-6"><use transform="translate(-664.61 -170.29)" xlink:href="#image"></use></g><g class="cls-5"><use transform="translate(-155.61 -48.29)" xlink:href="#image"></use></g></svg>