<svg xmlns="http://www.w3.org/2000/svg" xmlns:xlink="http://www.w3.org/1999/xlink" id="Ebene_1" data-name="Ebene 1" viewBox="0 0 72.04 72.03"><defs><style>      .cls-1 {        fill: #eff5ff;      }      .cls-1, .cls-2, .cls-3, .cls-4, .cls-5 {        stroke-width: 0px;      }      .cls-2 {        fill: #ff0;      }      .cls-6 {        clip-path: url(#clippath-2);      }      .cls-3 {        fill: #fbfbfb;      }      .cls-4 {        fill: none;      }      .cls-7 {        clip-path: url(#clippath-1);      }      .cls-8 {        clip-path: url(#clippath);      }      .cls-5 {        fill: #464951;      }    </style><clipPath id="clippath"><path class="cls-4" d="M-451.78,137.71h86v61.36c0,23.54-19.11,42.64-42.64,42.64h-.93c-23.41,0-42.42-19.01-42.42-42.42v-61.58h0Z"></path></clipPath><clipPath id="clippath-1"><path class="cls-4" d="M-451.78,375.71h86v61.36c0,23.54-19.11,42.64-42.64,42.64h0c-23.93,0-43.36-19.43-43.36-43.36v-60.64h0Z"></path></clipPath><clipPath id="clippath-2"><path class="cls-4" d="M-451.78,495.71h86v61.36c0,23.54-19.11,42.64-42.64,42.64h0c-23.93,0-43.36-19.43-43.36-43.36v-60.64h0Z"></path></clipPath><image id="image" width="1280" height="720"></image></defs><path class="cls-1" d="M35.11,72.02c-5.23-.42-11.46.71-17.62-1.01C7.76,68.29.27,59.12.11,48.99-.03,40.38-.04,31.76.11,23.15.31,10.89,11.02.26,23.28.09,31.76-.03,40.24-.02,48.73.09c12.43.16,23.11,10.92,23.25,23.38.09,8.36.08,16.73,0,25.09-.12,12.63-10.91,23.33-23.56,23.46-4.12.04-8.23,0-13.31,0Z"></path><g><path class="cls-5" d="M35.97,61.04c-13.5.25-25.25-11.1-25.06-25.39.18-13.43,11.36-25.08,25.91-24.65,13.3.39,24.12,11.19,24.31,24.69.21,14.27-11.58,25.65-25.17,25.35ZM47.44,57.13c1.53-.99,3.08-1.95,4.49-3.13.57-.48.72-.87.05-1.36-.28-.2-.42-.5-.15-.8.28-.3.6-.19.81.08.57.74,1.02.44,1.49-.1,1.57-1.82,2.88-3.81,3.88-6,1.2-2.65,1.83-5.43,2.07-8.32.04-.53,0-.98-.74-.93-.39.03-.9.05-.9-.52,0-.57.52-.54.9-.52.57.02.78-.22.74-.76-.02-.26,0-.51-.03-.77-.28-3.15-1.23-6.11-2.67-8.9-.96-1.85-2.07-3.62-3.6-5.09-.32-.3-.55-.44-.91-.05-.25.27-.56.72-.99.31-.49-.47.04-.75.31-1.04.29-.31.32-.51-.02-.83-.66-.63-1.35-1.2-2.09-1.73-1.68-1.19-3.48-2.24-5.38-2.95-1.92-.72-3.95-1.26-6.04-1.39-.36-.33-.81-.2-1.23-.25-.53-.07-.88.15-.83.77.04.43-.05.87-.58.86-.6,0-.63-.49-.59-.94.04-.56-.18-.78-.74-.74-5.6.4-10.5,2.44-14.71,6.14-.52.46-.44.76,0,1.16.3.27.63.59.16.98-.33.27-.61.04-.81-.21-.45-.56-.85-.56-1.29.01-.4.52-.84,1.01-1.23,1.53-2.86,3.75-4.38,8.01-4.82,12.68-.07.73-.01,1.33.99,1.21.3-.04.66.07.66.5,0,.48-.38.57-.72.53-.9-.11-1.01.41-.94,1.09.19,1.78.46,3.55.98,5.28,1.02,3.38,2.75,6.35,5.07,9,.44.5.79.7,1.26.07.25-.33.59-.43.98-.23.26.5-.09.78-.39,1.09-.16.16-.47.35-.26.61.33.42.7.83,1.12,1.16,1.78,1.4,3.71,2.53,5.78,3.44,2.52,1.1,5.16,1.71,7.89,1.93.67.05,1.2,0,1.04-.92-.06-.37.15-.71.56-.72.47,0,.6.35.6.77,0,.14,0,.28,0,.43,0,.28.12.47.4.42,1.52-.29,3.09-.08,4.59-.59,1.11-.37,2.25-.65,3.32-1.13.91-.22,1.69-.71,2.5-1.14Z"></path><path class="cls-2" d="M20.29,51.78c1.43-1.44,2.86-2.86,4.28-4.31.38-.39.68-.39,1.09-.03,2.38,2.06,5.14,3.39,8.21,4,2.75.55,5.49.41,8.2-.37,3.85-1.11,6.94-3.29,9.34-6.43,3.14-4.11,4.33-8.79,3.72-13.9-.63-5.23-3.03-9.55-6.95-13.04-2.85-2.53-6.17-4.15-9.9-4.96-.25-.05-.5-.12-.75-.18-.01,0-.02-.04-.06-.1.38-.3.78-.25,1.19-.11,2.09.13,4.12.67,6.04,1.39,1.9.72,3.7,1.76,5.38,2.95.75.53,1.43,1.1,2.09,1.73.34.32.31.52.02.83-.27.28-.8.57-.31,1.04.43.41.73-.04.99-.31.36-.39.59-.25.91.05,1.53,1.46,2.64,3.24,3.6,5.09,1.44,2.79,2.39,5.75,2.67,8.9.02.25.01.51.03.77.04.54-.18.78-.74.76-.38-.01-.9-.05-.9.52,0,.56.51.54.9.52.74-.05.78.4.74.93-.23,2.88-.87,5.67-2.07,8.32-.99,2.19-2.3,4.18-3.88,6-.47.55-.92.84-1.49.1-.21-.27-.53-.38-.81-.08-.28.3-.13.6.15.8.67.49.52.88-.05,1.36-1.4,1.18-2.96,2.13-4.49,3.13-.83.38-1.67.76-2.5,1.14-1.07.48-2.21.75-3.32,1.13-1.5.51-3.08.3-4.59.59-.28.05-.41-.14-.4-.42,0-.14,0-.28,0-.43,0-.41-.14-.77-.6-.77-.41,0-.62.35-.56.72.15.91-.37.97-1.04.92-2.74-.22-5.37-.82-7.89-1.93-2.07-.91-4.01-2.04-5.78-3.44-.42-.33-.78-.74-1.12-1.16-.21-.26.1-.45.26-.61.3-.31.65-.59.39-1.09Z"></path><path class="cls-3" d="M44.94,58.27c.84-.38,1.67-.76,2.5-1.14-.81.43-1.6.92-2.5,1.14Z"></path><path class="cls-5" d="M36.62,26.37c0,2.45,0,4.9,0,7.35,0,.65-.02,1.27.34,1.89.38.65,0,1.33-.73,1.48-.45.09-.77.33-1.08.64-1.69,1.69-3.39,3.38-5.09,5.07-.2.2-.41.41-.65.55-.24.14-.5.08-.69-.15-.17-.21-.15-.43,0-.63.16-.2.34-.39.52-.57,1.69-1.69,3.4-3.37,5.08-5.08.72-.73,1.08-1.66,1.09-2.66.02-5.07.01-10.14.01-15.21,0-.23,0-.46,0-.68.01-.45-.07-1.03.58-1.04.65-.01.61.55.61,1.01,0,2.68,0,5.36,0,8.03Z"></path></g><g class="cls-8"><use transform="translate(-523.78 -285.29)" xlink:href="#image"></use></g><g class="cls-7"><use transform="translate(-1032.78 -168.29)" xlink:href="#image"></use></g><g class="cls-6"><use transform="translate(-523.78 -46.29)" xlink:href="#image"></use></g></svg>