<svg xmlns="http://www.w3.org/2000/svg" id="Ebene_1" data-name="Ebene 1" viewBox="0 0 1092.2 702.9"><defs><style>      .cls-1 {        fill: #000;      }      .cls-1, .cls-2, .cls-3 {        stroke-width: 0px;      }      .cls-2 {        fill: #ff0;      }      .cls-3 {        fill: #3b434a;      }    </style></defs><g><polygon class="cls-3" points="366.4 131 369.5 137.6 384 134 414 107.4 428.5 123.8 408.2 141.4 424.3 154 478.1 135.7 453.1 100.7 438 116.5 413.9 93.8 389.4 111.4 385.4 83.7 380.7 86.8 375.8 91.7 384.2 118.5 366.4 131"></polygon><path class="cls-3" d="M122.1,332.9c4.6-2.2,9.9-4.7,15.8-7.4,19.8-9.3,39.8-18.5,40-18.6l2.7-1.2,16.9,25.8,58.6-38.4,13.4-36.8-9.1-11.2-47.7,14.6,6-28.1-7.1-2.7-2.1,7.3-14.9,8.1c-5,3.9-14.9,12.1-19.7,16.3l6.1,8.8-12.2,3.4v11.5c-9.6,4.3-31.9,13.5-42.1,15.6l-10.2,14.2,5.4,6.1v12.7h.2Z"></path><path class="cls-3" d="M296,450.6l-51.9,35.6-51.9-51.9,34.2-54.9-37.7,13.8-5.8-42.5,9.5-14.6-14.4-21.9c-18,8.4-40.9,19-56.9,26.6l-7.2,12,6.8,15.6c-20.9,12.5-64.4,46.7-83.5,62.4l10.2,19-11.4,13.6-11.5,10.2,1.4,18.3,24.4,18.3s-2.9,4.7-6,9.7h21.6c1.2-3.5,2.4-7.1,2.7-8.4.7-2.7,19.7-17.6,19.7-17.6l24.4-4.7,25.1-12.9s32.6.7,34.6.7c1.3,0,15.6,4.1,25.2,6.9,1.8-.1,3.5.1,5.1.5,9,2.3,14.4,11.8,24.3,29.2,7.1,12.5,16.6,29.3,31.5,50.6l44.1-45.3-16.9-28.5,10.3-39.8h0Z"></path><path class="cls-3" d="M293.2,489.3l15.4,26,106.8-27.7,76.3-50.2,48.9,10.8,43.9-42.4,5.6-32.1-7.4-8.8-26.6,9-60.6-8.5-34.2-11.3-7.8-25.6,19-39.3h-7.9v-3.4c0-7.2.1-13,.2-18.1.27-17.6-4.7-36.83-14.9-57.7l-2.6-5.3-7.4-10.3-42.4-3.7,33.2,37.5-43.3,4.1-30.9,34.7-31.8-21.2,32.6-15.9-32.8-9.3,51-43.3c-4.7.4-9,.8-13.1,1.2-41.67,3.67-78.7,15.87-111.1,36.6-7.3,4.7-15.5,9.9-25.2,16l-3.9,18.3,41-12.5,14.4,17.8-13.1,35.8,46-9.1-5.8,32.6,31.1,13.3-14.1,45.2,19.6,47-36.7,25.2.4.1-11.8,44.5h0Z"></path><path class="cls-3" d="M343.6,142.3l35.4,10,10.7,21.4-2.7,2.8-48.6,41.3,37.7,10.6-38,18.5,17,11.4,28.8-32.3,32.7-3.1-35.6-40.3,59.6,5.1,19.3-15.8,35.6-12.7-5.5-20.6-67,23.1-25.5-20,21.3-18.6-5.4-6.2-26.1,23.2-21.6,5.4-7.8-16.9,18.4-12.9-4.8-15.2-3.7,8c-8.3-2.5-5.7,1.8-14.2,3.3l5.4,6.8c-3.4,3-13.9,9.9-22.7,11.5l7.3,12.2h0Z"></path><path class="cls-3" d="M247.4,209.7c33.33-21.33,71.4-33.9,114.2-37.7,5.7-.5,11.9-1.1,18.8-1.7l-6.2-12.3-35.1-9.9-9.6-16.3-20.7,4.5-17.6-4.7,2.7-18.3-10.2-8.1h-21l-15.6,3.4,3.4,14.9c-4.9,5.4-16.7,15.7-22.4,20.4l-5.4,13.6,16.3-4.1s17.6-1.4,19.7-1.4,7.5,6.1,7.5,6.1l-2.7,13.6-25.8,12.2,3.4,19c-6.7,3.3-21.1,14.3-27.1,19l-.1.4,8.8,3.3c9.3-6.1,17.5-11.3,24.7-15.9h0Z"></path><polygon class="cls-3" points="406.1 91 416 80.7 424.1 71.2 417.3 71.2 392.9 78.7 391.7 79.5 394.6 99.3 406.1 91"></polygon><path id="appenzell-ai" class="cls-2" d="M817.5,203.6l31.1-16.4,3.6-17.5-25.9-8.8c-8.5,8.4-13,12.4-15.7,14.1.6,4.2,4.1,17.8,6.9,28.6h0Z"></path><path id="appenzell-ar" class="cls-2" d="M827.3,146.6l-47.6,14.4,7.8,31.3,22,8-6.9-29c2.2-1.3,14.1-10.6,20.4-16.9l1.5-1.5,28,9.5-1.7-28,27.4-4-13.4-8.4-37,24.4-.5.2Z"></path><path id="aargau" class="cls-2" d="M437.8,106.9l16.1-16.8,30.9,43.2,10-3.4,9,33.7-40.4,14.4-17,13.9,5.4,7.5,79.6-11.8,5,9.4,14.3-17.7,18.4,5.7,18.3,41.6,2.9-58.8-16.4-62.6,8.9-22.3s-23.8-16.2-30.2-22.5l-24.6,10.9-15,14.9c-9,1.3-31.6,4.7-40,7.5l-.7-11.5-9.5-6.1-12.9,1.4-12.9,9.5-14.2,5.9,15,14h0Z"></path><path id="schaffhausen" class="cls-2" d="M618.2,57.7l15.8-10.2,28.3-15.7v-6l11.5-6.8-8.8-4.8-12.9-14.2-7.7,11.4-.4-11.4h-12.2l-4.1,8.1c-18.5,3.4-23.3,3.3-35.3,19.7l-3.4,19.7,9.5,9.5,19.7.7h0Z"></path><path id="zurich" class="cls-2" d="M714.7,150.4l-24-56.7-19.1-21.5-.1-.2-18.2-27.4-17.9,9.9c-1.3,7.1-3.5,15.9-5,20.8l-2.7-11.5-13.6,3.4-5.4,10.2-17.9,3.8-9.8,24.4,16.1,61.4-1.7,35.4h36.7l24.3,20.7,3.3-14.5,17.5-5.3,36.3-19.8,1.2-33.1h0Z"></path><path id="stgallen" class="cls-2" d="M693.4,202.4h35.7l6.6,18.8,53.5,17.8-14.4,33.3,17.7,5.1v36.2l45.7,13,20.5-35.2-11.6-31,8.2-2,3.8-2.6,2-10.2-8.1-23.7c3.6-9.5,10.4-29.6,13.6-39.4l10.2-12.9,8.1-14.9h6.1v-19.2l-33.1,4.8,1.9,31.9-2,8.1-2.9,9.9-35.4,21-37.7-13.7-10.3-41,53.3-16.2,30.4-20,9.5-6.2-6.3.7h-8.1l-8.1-6.1-.1-.5-.9.6-99.8,13.5-19.6,26.9-1.4,38.7-27,14.5h0Z"></path><path id="thurgau" class="cls-2" d="M662.3,40v-.4l-3,1.7,17.7,26.8,19.5,22,22,52h0l19-26.2,101-13.7,2.2-1.6-2.1-12.4c-15.7-10.4-49-29.7-65.7-38.7,0,0-36.6-3.4-39.4-3.4s-14.2,10.2-16.3,12.9c-2,2.7-19.7-1.4-19.7-1.4-.5-5.8-1.7-18.8-2.7-24.4l-8.2-7.2-5.3,2.9-2.1,4.2,3.4,13.6-20.3-6.7h0Z"></path><polygon class="cls-3" points="578 359.4 569.3 349.1 569.3 315 551.3 299.2 516.1 315 503.9 360.4 555.4 367 578 359.4"></polygon><polygon id="zug" class="cls-2" points="651.5 244.6 654.7 230.6 629.6 209.2 595.1 209.2 593.6 238.7 626.5 250.2 651.5 244.6"></polygon><path class="cls-3" d="M625,430.4h26v-36.7l34.3-17.6c1.3-2.7,3.3-7,5.8-12.3,7.6-16.2,15.2-32.3,21.7-44.5l-45.9-2.5-.7-.4c-3.8-2.3-7.9-4.8-12.2-7.5-5.9-3.6-12.2-7.5-18.7-11.4l-24.9,38.7,19.3,34.5-32.2,5-1.6,4.9-4.6,26.5,16.4,39,17.3-15.7h0Z"></path><path class="cls-3" d="M629.5,293.9c-1.4-.8-2.8-1.7-4.1-2.5l-74.8-1.9,25.5,22.4v34.6l13.2,15.7-2.9-29.6h18.2l24.9-38.7h0Z"></path><path id="schwyz" class="cls-2" d="M680.2,209.5l-14.8,4.4-8.2,36.3-31.1,7-32.8-11.5-2.5,5.2-3,10.2c19.8,11.4,47.4,28.2,69.7,41.9,4.1,2.5,7.9,4.9,11.5,7l47.4,2.6c2.5-4.6,4.8-8.3,6.7-10.9l-21.3-22.6,27.6-55.6-5.1-14.5h-43.2l-.4.1-.5.3v.1h0Z"></path><path id="glarus" class="cls-2" d="M785.8,314.5v-31.9l-20.3-5.8,14.5-33.6-45.2-15.1-24.8,50,22.4,23.8-2.4,2.3c-4.6,4.5-15.2,25.7-23.9,43.9h34l45.7-33.6h0Z"></path><polygon class="cls-3" points="596.8 368.9 618.9 365.5 604.4 339.5 593.9 339.5 596.8 368.9"></polygon><path class="cls-3" d="M70.6,548.3l-3.4-11.5-4.1-8.8s.1-.4.4-1.1h-23.6c-1.5,2.2-2.7,4-3.2,4.5-2,2,2,8.1,2,8.1l-2,14.9c-19.6-1.7-14.6-2.5-32.6,5.4l4.1,8.8-8.2,6.8v14.9l28.5-4.1,19-5.4,15.6-15.6,14.2-5.4,8.1-8.8-8.1-5.4-6.7,2.7h0Z"></path><path id="luzern" class="cls-2" d="M471.4,282.5h12l-22.6,46.7,6,19.7,30.5,10.1,13.1-48.7,35.3-15.9-13.7-12,81.6,2.1c-11.4-6.9-22.4-13.4-31.5-18.6l-2.3-1.3,6.7-23.1-22.4-51-11-3.4-17.8,22.1-7.6-14.2-72.4,10.7.7,1.3c15.9,32.5,16.1,33,15.6,60.8-.1,4.3-.2,9.1-.2,14.7h0Z"></path><polygon class="cls-3" points="260.3 298.4 199 338.5 190.1 352.3 194.3 383.9 242.7 366.3 200.9 433.3 244.9 477.4 332.6 417.2 314.2 373 327.2 331.3 296.8 318.3 301.8 290.2 260.3 298.4"></polygon><path class="cls-3" d="M749.1,595.1l15.3-16.6-13.8-12.8-14.4-139.9-18.9-3.8-25.9,15.2h-63.8l-38.9,35.4-.6,3.6,12.4-2c2.7,5.7,4.7,24.2,5.4,30.5l-1.4,22.4-4.1,13.6v12.9l17.6,3.4c4.1,7.7,16.2,30.5,21,37.3l23.1,8.1,10.2-8.1,6.1,10.9,14.9,2,8.1,9.5c-4.8,5.8-14.7,17.5-19.7,23.1l25.1,18.3,8.8,14.2,2.7,13.6-7.5,13.6,18.3-6.8,5.4,10.2c4.4-6.2,13.3-18.9,17.6-25.1l-4.7-9.5-11.5-8.1-6.8-12.2,7.5-5.4c-2.4-14.2,5.5-3.5-3.4-19.7l15.6-6.1c.3-5.2.3-16.5.3-21.7h0Z"></path><path class="cls-3" d="M1088.4,416.6l-15.6-2.7-7.5-14.9,10.9-6.8-4.7-13.6,12.2-8.1-6.8-12.2,6.8-3.4,4.7-17v-33.9l-12.2-6.8-8.1-9.5-7.5.7c-3.4,5.8-8.2,17.9-10.2,24.4l-16.3-1.4-4.8,7.5v13.6l-6.8,4.8s-10.9,4.7-13.6,4.1-9.5,0-9.5,0l-8.1-4.8-4.7-10.9-17-8.1h-10.9l-13.6-6.1v-31.9l-8.1,4.1-12.9-9.5h-14.9l-18.3-5.4c-13,0-9.6-1.3-21,5.4l-6.8-9.5h-4.6l-2.4.6,10.1,26.9-24.8,42.6-51.6-14.7-47.5,35h-39.5c-2.1,4.4-4,8.5-5.6,11.9-2.8,6-5.1,10.8-6.4,13.4l-.5,1-32.6,16.7v32.5h31.9l26.6-15.6,26.3,5.3,14.6,142.2,16.2,15h1.6c5.5-12,14.7-27.7,23.1-38l5.4-17-7.5-29.9-7.5-12.2,6.1-4.1,3.4-12.2,8.1-5.4h17.6v7.5l4.7,8.1,6.1-12.9,7.5-.7,3.4,9.5c-1.3,7.9-4.3,28.1-3.4,36l13.6,4.8.7,12.9,9.5,10.2c8.2.1,28,.7,36,2,3.5-8.9,3.6-7.9,3.4-17.6l6.8-4.8,6.8,5.4,12.2-2,14.9-10.9,14.9-.7,12.9,10.9c.5,5.7.8,17.3.7,23.1l12.9,8.8v11.5l18.3-4.8h9.5l3.4-8.8c-5.3-4.7-14.8-16-19-21.7l4.8-17.6,12.9-4.8v-8.1l-10.9-4.1c-10.4.1-9.2.6-19-3.4l-3.4-9.5.7-22.4,8.8-23.1,8.8-8.8c9-2.7,27.5-7.4,36.6-8.8l2,9.5-6.8,10.9,10.9,6.8,11.5,4.1,14.2-2,14.9,6.1,6.8-6.1v-14.2l-3.8-12.4Z"></path><path class="cls-3" d="M586.5,413.5l-43.7,42.2-49.7-11-74.8,49.3-109.6,28.4h0l-51,52.5-2.4-3.3c-16.4-23.1-26.7-41.3-34.2-54.5-7.1-12.5-11.7-20.5-16.3-24.1l-1.9,7.9-5.4,8.8v6.8c5.2,4.1,15.4,12.6,20.4,17l-2,17-11.5,13.6v27.1l21.7,4.8-1.4,10.2-5.4,17,19-6.8,9.5,13.6v6.1l8.1,10.9,4.7,14.9c2.7,3.3,10.5,19,12.2,23.1l13.6.7,8.1-6.1,16.3-5.4,10.2-9.5c5.9,1.7,18,6.4,23.7,8.8l14.2-16.3,16.3-4.1,5.4-7.5,9.5,2,17-2.7s8.8,9.5,10.2,11.5c1.4,2,9.5,4.1,9.5,4.1l8.8,6.1,24.1,3.4c.7-5.8-.5-14.5.3-21.7.7-2,10.9-10.2,10.9-10.2l18.3-.7,6.8-14.9-2.7-13.6,6.8-8.8,14.2-6.1,10.9-9.5,2.7-11.5-3.4-16.3-17.6-7.5,17.6-18.3,6.8,1.4,14.9-9.5,6.3-9.5,12.7-4.1,2-10.2-5.4-8.1c4.8-2.4,13.3-7.5,18.9-11.4l1.7-10,19.9-18.1-15.8-37.9h0Z"></path></g><g><path class="cls-1" d="M635.25,143.18v-.98l4.47-6.42h-4.5v-1.33h6.46v.98l-4.47,6.42h4.5v1.33h-6.46Z"></path><path class="cls-1" d="M643.37,143.18v-8.73h1.58v3.69h4.04v-3.69h1.59v8.73h-1.59v-3.71h-4.04v3.71h-1.58Z"></path></g><g><path class="cls-1" d="M749.43,186.3c-.04-.37-.21-.66-.5-.87-.29-.21-.67-.31-1.14-.31-.33,0-.61.05-.85.15-.24.1-.42.23-.54.4s-.19.37-.19.58c0,.18.04.34.13.47.08.13.2.25.34.34s.31.17.48.23.35.12.53.16l.82.2c.33.08.65.18.95.31.3.13.58.3.82.49.24.2.43.44.58.72.14.28.21.61.21.99,0,.51-.13.96-.39,1.35-.26.39-.64.69-1.13.91s-1.09.33-1.79.33-1.27-.11-1.77-.32c-.5-.21-.89-.52-1.17-.92-.28-.4-.43-.9-.45-1.47h1.55c.02.3.12.56.28.76.17.2.38.35.65.45.27.1.56.15.89.15s.65-.05.91-.16c.26-.1.46-.25.61-.43s.22-.4.23-.65c0-.23-.07-.42-.2-.56-.13-.15-.31-.27-.55-.38-.23-.1-.51-.19-.82-.27l-.99-.26c-.72-.18-1.29-.46-1.7-.84-.42-.38-.62-.88-.62-1.5,0-.51.14-.96.42-1.35.28-.39.66-.69,1.14-.9.48-.21,1.03-.32,1.64-.32s1.16.11,1.63.32c.47.21.83.51,1.1.89.27.38.4.81.41,1.31h-1.52Z"></path><path class="cls-1" d="M758.46,186.68c-.07-.23-.17-.44-.29-.62-.12-.18-.27-.34-.44-.47s-.37-.23-.59-.3c-.22-.07-.46-.1-.72-.1-.47,0-.89.12-1.25.35-.37.24-.65.58-.86,1.04s-.31,1.01-.31,1.66.1,1.22.31,1.67c.21.46.5.8.87,1.04.37.24.8.36,1.29.36.44,0,.83-.08,1.15-.26.33-.17.58-.41.75-.73.18-.31.26-.68.26-1.11l.36.06h-2.37v-1.24h3.54v1.05c0,.75-.16,1.39-.48,1.94s-.76.97-1.31,1.26-1.2.44-1.92.44c-.8,0-1.51-.18-2.12-.54-.61-.36-1.08-.88-1.42-1.55-.34-.67-.51-1.46-.51-2.38,0-.7.1-1.33.3-1.89.2-.55.48-1.02.84-1.41.36-.39.78-.68,1.27-.89.49-.2,1.01-.3,1.59-.3.48,0,.93.07,1.35.21s.79.34,1.11.6c.33.26.59.57.8.92.21.36.35.75.41,1.18h-1.61Z"></path></g><g><path class="cls-1" d="M740.08,77.98v-1.33h6.96v1.33h-2.7v7.4h-1.57v-7.4h-2.7Z"></path><path class="cls-1" d="M753.98,79.44c-.07-.23-.17-.44-.29-.62-.12-.18-.27-.34-.44-.47s-.37-.23-.59-.3c-.22-.07-.46-.1-.72-.1-.47,0-.89.12-1.25.35-.37.24-.65.58-.86,1.04s-.31,1.01-.31,1.66.1,1.22.31,1.67c.21.46.5.8.87,1.04.37.24.8.36,1.29.36.44,0,.83-.08,1.15-.26.33-.17.58-.41.75-.73.18-.31.26-.68.26-1.11l.36.06h-2.37v-1.24h3.54v1.05c0,.75-.16,1.39-.48,1.94s-.76.97-1.31,1.26-1.2.44-1.92.44c-.8,0-1.51-.18-2.12-.54-.61-.36-1.08-.88-1.42-1.55-.34-.67-.51-1.46-.51-2.38,0-.7.1-1.33.3-1.89.2-.55.48-1.02.84-1.41.36-.39.78-.68,1.27-.89.49-.2,1.01-.3,1.59-.3.48,0,.93.07,1.35.21s.79.34,1.11.6c.33.26.59.57.8.92.21.36.35.75.41,1.18h-1.61Z"></path></g><g><path class="cls-1" d="M620.76,26.38c-.04-.37-.21-.66-.5-.87-.29-.21-.67-.31-1.14-.31-.33,0-.61.05-.85.15-.24.1-.42.23-.54.4s-.19.37-.19.58c0,.18.04.34.13.47.08.13.2.25.34.34s.31.17.48.23.35.12.53.16l.82.2c.33.08.65.18.95.31.3.13.58.3.82.49.24.2.43.44.58.72.14.28.21.61.21.99,0,.51-.13.96-.39,1.35-.26.39-.64.69-1.13.91s-1.09.33-1.79.33-1.27-.11-1.77-.32c-.5-.21-.89-.52-1.17-.92-.28-.4-.43-.9-.45-1.47h1.55c.02.3.12.56.28.76.17.2.38.35.65.45.27.1.56.15.89.15s.65-.05.91-.16c.26-.1.46-.25.61-.43s.22-.4.23-.65c0-.23-.07-.42-.2-.56-.13-.15-.31-.27-.55-.38-.23-.1-.51-.19-.82-.27l-.99-.26c-.72-.18-1.29-.46-1.7-.84-.42-.38-.62-.88-.62-1.5,0-.51.14-.96.42-1.35.28-.39.66-.69,1.14-.9.48-.21,1.03-.32,1.64-.32s1.16.11,1.63.32c.47.21.83.51,1.1.89.27.38.4.81.41,1.31h-1.52Z"></path><path class="cls-1" d="M623.94,32.71v-8.73h1.58v3.69h4.04v-3.69h1.59v8.73h-1.59v-3.71h-4.04v3.71h-1.58Z"></path></g><g><path class="cls-1" d="M786.68,172.54h-1.69l3.07-8.73h1.95l3.08,8.73h-1.69l-2.33-6.94h-.07l-2.33,6.94ZM786.73,169.11h4.6v1.27h-4.6v-1.27Z"></path><path class="cls-1" d="M794.37,172.54v-8.73h3.27c.67,0,1.23.12,1.69.35s.8.56,1.04.98.35.91.35,1.46-.12,1.04-.36,1.46c-.24.41-.59.73-1.05.95-.46.22-1.03.33-1.7.33h-2.33v-1.31h2.12c.39,0,.71-.05.96-.16s.44-.27.56-.48c.12-.21.18-.47.18-.78s-.06-.57-.18-.79-.31-.39-.56-.5c-.25-.11-.57-.17-.97-.17h-1.45v7.41h-1.58ZM798.88,168.58l2.16,3.95h-1.76l-2.12-3.95h1.73Z"></path></g><g><path class="cls-1" d="M825.33,185.19h-1.69l3.07-8.73h1.95l3.08,8.73h-1.69l-2.33-6.94h-.07l-2.33,6.94ZM825.38,181.77h4.6v1.27h-4.6v-1.27Z"></path><path class="cls-1" d="M834.61,176.46v8.73h-1.58v-8.73h1.58Z"></path></g><g><path class="cls-1" d="M614.01,234.1v-.98l4.47-6.42h-4.5v-1.33h6.46v.98l-4.47,6.42h4.5v1.33h-6.46Z"></path><path class="cls-1" d="M627.58,228.16c-.07-.23-.17-.44-.29-.62-.12-.18-.27-.34-.44-.47s-.37-.23-.59-.3c-.22-.07-.46-.1-.72-.1-.47,0-.89.12-1.25.35-.37.24-.65.58-.86,1.04s-.31,1.01-.31,1.66.1,1.22.31,1.67c.21.46.5.8.87,1.04.37.24.8.36,1.29.36.44,0,.83-.08,1.15-.26.33-.17.58-.41.75-.73.18-.31.26-.68.26-1.11l.36.06h-2.37v-1.24h3.54v1.05c0,.75-.16,1.39-.48,1.94s-.76.97-1.31,1.26-1.2.44-1.92.44c-.8,0-1.51-.18-2.12-.54-.61-.36-1.08-.88-1.42-1.55-.34-.67-.51-1.46-.51-2.38,0-.7.1-1.33.3-1.89.2-.55.48-1.02.84-1.41.36-.39.78-.68,1.27-.89.49-.2,1.01-.3,1.59-.3.48,0,.93.07,1.35.21s.79.34,1.11.6c.33.26.59.57.8.92.21.36.35.75.41,1.18h-1.61Z"></path></g><g><path class="cls-1" d="M526.96,136.23h-1.69l3.07-8.73h1.95l3.08,8.73h-1.69l-2.33-6.94h-.07l-2.33,6.94ZM527.01,132.81h4.6v1.27h-4.6v-1.27Z"></path><path class="cls-1" d="M540.09,130.29c-.07-.23-.17-.44-.29-.62-.12-.18-.27-.34-.44-.47s-.37-.23-.59-.3c-.22-.07-.46-.1-.72-.1-.47,0-.89.12-1.25.35-.37.24-.65.58-.86,1.04s-.31,1.01-.31,1.66.1,1.22.31,1.67c.21.46.5.8.87,1.04.37.24.8.36,1.29.36.44,0,.83-.08,1.15-.26.33-.17.58-.41.75-.73.18-.31.26-.68.26-1.11l.36.06h-2.37v-1.24h3.54v1.05c0,.75-.16,1.39-.48,1.94s-.76.97-1.31,1.26-1.2.44-1.92.44c-.8,0-1.51-.18-2.12-.54-.61-.36-1.08-.88-1.42-1.55-.34-.67-.51-1.46-.51-2.38,0-.7.1-1.33.3-1.89.2-.55.48-1.02.84-1.41.36-.39.78-.68,1.27-.89.49-.2,1.01-.3,1.59-.3.48,0,.93.07,1.35.21s.79.34,1.11.6c.33.26.59.57.8.92.21.36.35.75.41,1.18h-1.61Z"></path></g><g><path class="cls-1" d="M512.92,256.41v-8.73h1.58v7.4h3.84v1.33h-5.42Z"></path><path class="cls-1" d="M525.35,247.68h1.58v5.7c0,.62-.15,1.17-.44,1.65-.29.47-.71.84-1.24,1.11-.53.27-1.15.4-1.86.4s-1.34-.13-1.87-.4-.94-.64-1.24-1.11c-.29-.47-.44-1.02-.44-1.65v-5.7h1.58v5.57c0,.36.08.69.24.97s.39.51.68.67c.29.16.64.24,1.04.24s.75-.08,1.04-.24c.29-.16.52-.38.68-.67.16-.28.24-.61.24-.97v-5.57Z"></path></g><g><path class="cls-1" d="M673.61,262.08c-.04-.37-.21-.66-.5-.87-.29-.21-.67-.31-1.14-.31-.33,0-.61.05-.85.15-.24.1-.42.23-.54.4s-.19.37-.19.58c0,.18.04.34.13.47.08.13.2.25.34.34s.31.17.48.23.35.12.53.16l.82.2c.33.08.65.18.95.31.3.13.58.3.82.49.24.2.43.44.58.72.14.28.21.61.21.99,0,.51-.13.96-.39,1.35-.26.39-.64.69-1.13.91s-1.09.33-1.79.33-1.27-.11-1.77-.32c-.5-.21-.89-.52-1.17-.92-.28-.4-.43-.9-.45-1.47h1.55c.02.3.12.56.28.76.17.2.38.35.65.45.27.1.56.15.89.15s.65-.05.91-.16c.26-.1.46-.25.61-.43s.22-.4.23-.65c0-.23-.07-.42-.2-.56-.13-.15-.31-.27-.55-.38-.23-.1-.51-.19-.82-.27l-.99-.26c-.72-.18-1.29-.46-1.7-.84-.42-.38-.62-.88-.62-1.5,0-.51.14-.96.42-1.35.28-.39.66-.69,1.14-.9.48-.21,1.03-.32,1.64-.32s1.16.11,1.63.32c.47.21.83.51,1.1.89.27.38.4.81.41,1.31h-1.52Z"></path><path class="cls-1" d="M676.63,268.41v-.98l4.47-6.42h-4.5v-1.33h6.46v.98l-4.47,6.42h4.5v1.33h-6.46Z"></path></g><g><path class="cls-1" d="M748.07,284.39c-.07-.23-.17-.44-.29-.62-.12-.18-.27-.34-.44-.47s-.37-.23-.59-.3c-.22-.07-.46-.1-.72-.1-.47,0-.89.12-1.25.35-.37.24-.65.58-.86,1.04s-.31,1.01-.31,1.66.1,1.22.31,1.67c.21.46.5.8.87,1.04.37.24.8.36,1.29.36.44,0,.83-.08,1.15-.26.33-.17.58-.41.75-.73.18-.31.26-.68.26-1.11l.36.06h-2.37v-1.24h3.54v1.05c0,.75-.16,1.39-.48,1.94s-.76.97-1.31,1.26-1.2.44-1.92.44c-.8,0-1.51-.18-2.12-.54-.61-.36-1.08-.88-1.42-1.55-.34-.67-.51-1.46-.51-2.38,0-.7.1-1.33.3-1.89.2-.55.48-1.02.84-1.41.36-.39.78-.68,1.27-.89.49-.2,1.01-.3,1.59-.3.48,0,.93.07,1.35.21s.79.34,1.11.6c.33.26.59.57.8.92.21.36.35.75.41,1.18h-1.61Z"></path><path class="cls-1" d="M751.42,290.33v-8.73h1.58v7.4h3.84v1.33h-5.42Z"></path></g></svg>