<svg xmlns="http://www.w3.org/2000/svg" id="Layer_3" height="512" viewBox="0 0 64 64" width="512" data-name="Layer 3"><path d="m2 47 15-26h30l15 26z" fill="#93622c"></path><path d="m47 21h-30l-4.792 8.306c3.556 4.765 14.593 8.24 27.665 8.24a63.514 63.514 0 0 0 15.613-1.836z" fill="#a56c34"></path><path d="m2 47h60v12h-60z" fill="#c48857"></path><path d="m62 47v12h-30v-4h3a2 2 0 0 0 2-2 2 2 0 0 0 -2-2h-3v-4z" fill="#b57841"></path><g fill="#754317"><path d="m25.707 40.707a7.774 7.774 0 0 0 2.293-5.536v-3.671a6.016 6.016 0 0 0 -1.232-3.623 7.035 7.035 0 0 0 3.232-5.877v-1h-2v1a5.029 5.029 0 0 1 -2.69 4.424 4 4 0 0 1 -1.31-2.924v-2.5h-2v2.5a6.03 6.03 0 0 0 2.4 4.8 4.02 4.02 0 0 1 1.6 3.2v3.671a5.789 5.789 0 0 1 -1.707 4.122 7.774 7.774 0 0 0 -2.293 5.536v2.171h2v-2.171a5.789 5.789 0 0 1 1.707-4.122z"></path><path d="m19.642 39.49a5.1 5.1 0 0 0 4.358-5.026v-.883a3.19 3.19 0 0 0 -2.184-3.03 1.191 1.191 0 0 1 -.816-1.132v-8.419h-2v8.419a3.19 3.19 0 0 0 2.184 3.03 1.191 1.191 0 0 1 .816 1.132v.883a3.092 3.092 0 0 1 -2.642 3.046 5.1 5.1 0 0 0 -4.358 5.026v4.464h2v-4.464a3.092 3.092 0 0 1 2.642-3.046z"></path><path d="m16.832 32.555a1.008 1.008 0 0 0 .168-.465l1-11.09h-1l-1.192 2.066-.781 8.591-2.531 3.8a20.751 20.751 0 0 0 -3.496 11.543h2a18.764 18.764 0 0 1 3.16-10.438z"></path><path d="m53 46a7.035 7.035 0 0 0 -3.232-5.877 6.016 6.016 0 0 0 1.232-3.623v-3.671a7.774 7.774 0 0 0 -2.293-5.536 5.789 5.789 0 0 1 -1.707-4.122v-2.171h-2v2.171a7.774 7.774 0 0 0 2.293 5.536 5.789 5.789 0 0 1 1.707 4.122v3.671a4.02 4.02 0 0 1 -1.6 3.2 6.03 6.03 0 0 0 -2.4 4.8v2.5h2v-2.5a4 4 0 0 1 1.31-2.924 5.029 5.029 0 0 1 2.69 4.424v1h2z"></path><path d="m44.816 37.449a3.19 3.19 0 0 0 2.184-3.03v-.883a5.1 5.1 0 0 0 -4.358-5.026 3.092 3.092 0 0 1 -2.642-3.046v-4.464h-2v4.464a5.1 5.1 0 0 0 4.358 5.026 3.092 3.092 0 0 1 2.642 3.046v.883a1.191 1.191 0 0 1 -.816 1.132 3.19 3.19 0 0 0 -2.184 3.03v8.419h2v-8.419a1.191 1.191 0 0 1 .816-1.132z"></path><path d="m40 35.91a1.008 1.008 0 0 0 -.164-.465l-2.676-4.007a18.764 18.764 0 0 1 -3.16-10.438h-3v26h2v-19.648a20.782 20.782 0 0 0 2.5 5.195l2.531 3.8.969 10.653h2.01l-.01-.09z"></path></g><path d="m2 33h60v4h-60z" fill="#d39d63"></path><path d="m62 33-15-17h-30l-15 17z" fill="#b57841"></path><path d="m2 22h60v4h-60z" fill="#fcd7a7"></path><path d="m62 22-15-17h-30l-15 17z" fill="#d39d63"></path><path d="m9.542 13.452a150.883 150.883 0 0 0 22.458 1.548 150.883 150.883 0 0 0 22.458-1.548l-7.458-8.452h-30z" fill="#eab87d"></path></svg>